<svg width="10" height="8" viewBox="0 0 10 8" fill="none" xmlns="http://www.w3.org/2000/svg">
    <path d="M4 0H1C0.45 0 0.005 0.45 0.005 1L0 7C0 7.55 0.45 8 1 8H9C9.55 8 10 7.55 10 7V2C10 1.45 9.55 1 9 1H5L4 0Z" fill="#A0A0A9" />
    <path d="M6.55556 6.11111C7.41467 6.11111 8.11111 5.41467 8.11111 4.55556C8.11111 3.69645 7.41467 3 6.55556 3C5.69645 3 5 3.69645 5 4.55556C5 5.41467 5.69645 6.11111 6.55556 6.11111Z" stroke="white" stroke-width="0.65" stroke-linecap="round" stroke-linejoin="round" />
    <path d="M8.99999 7.00001L7.66666 5.66667" stroke="white" stroke-width="0.65" stroke-linecap="round" stroke-linejoin="round" />
</svg>
    