<svg width="14" height="12" viewBox="0 0 14 12" fill="none" xmlns="http://www.w3.org/2000/svg">
    <path
        d="M13 0H1C0.734784 0 0.48043 0.105357 0.292893 0.292893C0.105357 0.48043 0 0.734784 0 1V11C0 11.2652 0.105357 11.5196 0.292893 11.7071C0.48043 11.8946 0.734784 12 1 12H13C13.2652 12 13.5196 11.8946 13.7071 11.7071C13.8946 11.5196 14 11.2652 14 11V1C14 0.734784 13.8946 0.48043 13.7071 0.292893C13.5196 0.105357 13.2652 0 13 0ZM1 1H9V11H1V1ZM13 11H10V1H13V11Z"
        fill="white" />
    <path
        d="M9.62291 5.54323L4.74036 5.54323L6.85398 3.42961L6.21218 2.78782L3 6L6.20577 9.20577L6.85462 8.56975L4.7367 6.45182L9.61924 6.45182L9.62291 5.54323Z"
        fill="white" />
</svg>
    