<svg width="14" height="12" viewBox="0 0 14 12" fill="none" xmlns="http://www.w3.org/2000/svg">
    <path
        d="M13 0H1C0.734784 0 0.48043 0.105357 0.292893 0.292893C0.105357 0.48043 0 0.734784 0 1V11C0 11.2652 0.105357 11.5196 0.292893 11.7071C0.48043 11.8946 0.734784 12 1 12H13C13.2652 12 13.5196 11.8946 13.7071 11.7071C13.8946 11.5196 14 11.2652 14 11V1C14 0.734784 13.8946 0.48043 13.7071 0.292893C13.5196 0.105357 13.2652 0 13 0V0ZM1 1H9V11H1V1ZM13 11H10V1H13V11Z"
        fill="#18181B" />
    <path
        d="M2.5 5.54323L7.33508 5.54323L5.22146 3.42961L5.86326 2.78782L9.07544 6L5.86967 9.20577L5.22082 8.56975L7.33874 6.45182L2.5 6.45182V5.54323Z"
        fill="#18181B" />
</svg>
    