<svg width="10" height="8" viewBox="0 0 10 8" fill="none" xmlns="http://www.w3.org/2000/svg">
    <path fill-rule="evenodd" clip-rule="evenodd"
        d="M1.81818 0H4.54545L5.45454 0.888889H9.09091C9.59091 0.888889 10 1.28889 10 1.77778V6.22222C10 6.71111 9.59091 7.11111 9.09091 7.11111H9.08299C9.05511 7.33371 8.95448 7.54212 8.79506 7.70246C8.60563 7.89297 8.3487 8 8.08081 8H1.0101C0.742206 8 0.485282 7.89297 0.295852 7.70246C0.106421 7.51194 0 7.25355 0 6.98413V1.90476C0 1.63534 0.106421 1.37694 0.295852 1.18643C0.462407 1.01892 0.681139 0.915956 0.913629 0.89353L0.913633 0.888889C0.913633 0.4 1.31818 0 1.81818 0ZM0.913199 1.39828C0.814664 1.41757 0.722938 1.46603 0.650411 1.53898C0.554431 1.6355 0.5 1.76703 0.5 1.90476V6.98413C0.5 7.12186 0.554431 7.25338 0.650411 7.34991C0.746296 7.44635 0.875736 7.5 1.0101 7.5H8.08081C8.21517 7.5 8.34461 7.44635 8.4405 7.34991C8.50635 7.28369 8.55264 7.20099 8.57522 7.11111H1.81818C1.31818 7.11111 0.909087 6.71111 0.909087 6.22222L0.913199 1.39828Z"
        fill="#A0A0A9" />
</svg>
    