<svg width="180" height="120" viewBox="0 0 180 120" fill="none" xmlns="http://www.w3.org/2000/svg">
    <g clip-path="url(#clip0_469_42509)">
        <path d="M140.556 48.6312H174.754L169.183 52.6512V60.5712C169.183 61.0092 169.009 61.4291 168.7 61.7388C168.39 62.0485 167.97 62.2224 167.532 62.2224H140.556C140.118 62.2224 139.698 62.0485 139.388 61.7388C139.079 61.4291 138.905 61.0092 138.905 60.5712V50.2824C138.905 49.8445 139.079 49.4245 139.388 49.1149C139.698 48.8052 140.118 48.6312 140.556 48.6312Z" fill="#F5F5F5" />
        <path d="M141.982 54.2209C141.982 54.2545 147.139 54.2809 153.502 54.2809C159.864 54.2809 165.022 54.2545 165.022 54.2209C165.022 54.1873 159.864 54.1609 153.502 54.1609C147.139 54.1609 141.982 54.1873 141.982 54.2209Z" fill="#E0E0E0" />
        <path d="M141.982 57.2569C141.982 57.2905 147.139 57.3169 153.502 57.3169C159.864 57.3169 165.022 57.2905 165.022 57.2569C165.022 57.2233 159.864 57.1969 153.502 57.1969C147.139 57.1969 141.982 57.2257 141.982 57.2569Z" fill="#E0E0E0" />
        <path d="M88.6175 19.4473H87.0167V24.8089H88.6175V19.4473Z" fill="#E0E0E0" />
        <path d="M75.2496 18.6721H73.6488V24.8089H75.2496V18.6721Z" fill="#E0E0E0" />
        <path d="M78.5927 17.3928H76.9919V24.8088H78.5927V17.3928Z" fill="#E0E0E0" />
        <path d="M81.9336 17.7985H80.3328V24.8089H81.9336V17.7985Z" fill="#E0E0E0" />
        <path d="M85.2744 15.4272H83.6736V24.8088H85.2744V15.4272Z" fill="#E0E0E0" />
        <path d="M91.9583 15.4729H90.3575V24.8089H91.9583V15.4729Z" fill="#E0E0E0" />
        <path d="M95.3016 18.54H93.7008V24.8088H95.3016V18.54Z" fill="#E0E0E0" />
        <path d="M98.6423 15.8833H97.0415V24.8089H98.6423V15.8833Z" fill="#E0E0E0" />
        <path d="M101.986 13.8745H100.385V24.8089H101.986V13.8745Z" fill="#E0E0E0" />
        <path d="M105.326 15.8376H103.726V24.8088H105.326V15.8376Z" fill="#E0E0E0" />
        <path d="M147.494 24.3121L160.728 22.2889C161.152 25.0552 160.699 27.885 159.432 30.3806C158.166 32.8762 156.149 34.9122 153.666 36.2027C151.182 37.4931 148.357 37.973 145.586 37.5751C142.816 37.1771 140.24 35.9212 138.22 33.9839C136.201 32.0466 134.839 29.5251 134.326 26.7739C133.813 24.0226 134.175 21.1797 135.36 18.6447C136.546 16.1096 138.497 14.0098 140.937 12.6402C143.378 11.2707 146.186 10.7001 148.968 11.0089L147.494 24.3121Z" fill="#EBEBEB" />
        <path d="M151.788 11.04L150.182 21.2976L160.262 19.4064C160.262 19.4064 158.772 13.6656 151.788 11.04Z" fill="#E0E0E0" />
        <path d="M12.3551 49.2001C12.3392 47.9035 12.7077 46.6313 13.4143 45.544C14.1208 44.4567 15.1337 43.6031 16.325 43.0911C17.5163 42.579 18.8326 42.4314 20.1077 42.6668C21.3828 42.9023 22.5596 43.5103 23.4894 44.414C24.4193 45.3178 25.0605 46.4767 25.3322 47.7446C25.6039 49.0126 25.4938 50.3325 25.0158 51.5379C24.5379 52.7433 23.7135 53.78 22.6468 54.5173C21.5801 55.2545 20.3188 55.6591 19.0223 55.6801C17.2798 55.7019 15.5996 55.0321 14.3499 53.8176C13.1002 52.603 12.3829 50.9425 12.3551 49.2001ZM22.0535 49.0417C22.0402 48.4225 21.8439 47.8211 21.4893 47.3133C21.1347 46.8055 20.6377 46.4141 20.061 46.1883C19.4843 45.9625 18.8537 45.9125 18.2486 46.0445C17.6435 46.1766 17.091 46.4848 16.6608 46.9303C16.2307 47.3759 15.942 47.9388 15.8312 48.5482C15.7204 49.1575 15.7925 49.786 16.0384 50.3544C16.2843 50.9229 16.6929 51.4058 17.2128 51.7424C17.7327 52.0789 18.3406 52.2541 18.9599 52.2457C19.3735 52.2388 19.7817 52.1504 20.1612 51.9856C20.5406 51.8208 20.8838 51.5828 21.1711 51.2852C21.4585 50.9876 21.6843 50.6363 21.8357 50.2513C21.9871 49.8663 22.0611 49.4553 22.0535 49.0417Z" fill="#F5F5F5" />
        <path d="M12.3551 49.2001C12.3249 47.4563 12.9877 45.7717 14.198 44.5159C15.4083 43.2601 17.0674 42.5358 18.8111 42.5017L18.8663 45.9409C18.0432 45.9723 17.2651 46.3244 16.6983 46.9221C16.1314 47.5197 15.821 48.3154 15.8332 49.139C15.8454 49.9626 16.1794 50.7488 16.7637 51.3293C17.348 51.9099 18.1363 52.2388 18.9599 52.2457L19.0223 55.6801C17.2796 55.7026 15.5991 55.033 14.3492 53.8183C13.0994 52.6036 12.3823 50.9428 12.3551 49.2001Z" fill="#E0E0E0" />
        <path d="M18.2231 41.9712C19.2206 41.9476 20.2127 42.1232 21.1415 42.4876C22.0703 42.8521 22.917 43.3982 23.6322 44.0939C24.3474 44.7896 24.9166 45.621 25.3065 46.5394C25.6964 47.4578 25.8993 48.4447 25.9031 49.4424L21.8951 49.5048C21.8639 47.472 20.3159 46.1928 18.2951 46.2264L18.2231 41.9712Z" fill="#EBEBEB" />
        <path d="M54.9888 72.3457H46.6464V82.2625H54.9888V72.3457Z" fill="#F5F5F5" />
        <path d="M46.9368 71.6976H9.23999V82.884H46.9368V71.6976Z" fill="#E0E0E0" />
        <path d="M55.2407 72.6384H45.924V71.6976H55.2407C55.3681 71.6976 55.4901 71.7482 55.5802 71.8382C55.6702 71.9282 55.7207 72.0503 55.7207 72.1776C55.7158 72.3016 55.663 72.4188 55.5735 72.5047C55.4841 72.5906 55.3648 72.6385 55.2407 72.6384Z" fill="#E0E0E0" />
        <path d="M55.2407 82.884H45.924V81.9432H55.2407C55.3681 81.9432 55.4901 81.9938 55.5802 82.0838C55.6702 82.1738 55.7207 82.2959 55.7207 82.4232C55.7158 82.5472 55.663 82.6644 55.5735 82.7503C55.4841 82.8362 55.3648 82.8841 55.2407 82.884Z" fill="#E0E0E0" />
        <path d="M43.9727 71.6976H39.5183V82.884H43.9727V71.6976Z" fill="#EBEBEB" />
        <path d="M17.2775 71.8225H12.8231V83.0089H17.2775V71.8225Z" fill="#EBEBEB" />
        <path d="M54.9888 73.9848C54.9888 74.0136 53.184 74.0353 50.9568 74.0353C48.7296 74.0353 46.9248 74.0136 46.9248 73.9848C46.9248 73.956 48.7296 73.9344 50.9568 73.9344C53.184 73.9344 54.9888 73.9584 54.9888 73.9848Z" fill="#E0E0E0" />
        <path d="M54.9888 75.4729C54.9888 75.4993 53.184 75.5209 50.9568 75.5209C48.7296 75.5209 46.9248 75.4993 46.9248 75.4729C46.9248 75.4465 48.7296 75.4225 50.9568 75.4225C53.184 75.4225 54.9888 75.4441 54.9888 75.4729Z" fill="#E0E0E0" />
        <path d="M54.9888 77.3041C54.9888 77.3305 53.184 77.3521 50.9568 77.3521C48.7296 77.3521 46.9248 77.3305 46.9248 77.3041C46.9248 77.2777 48.7296 77.2537 50.9568 77.2537C53.184 77.2537 54.9888 77.2801 54.9888 77.3041Z" fill="#E0E0E0" />
        <path d="M54.9888 79.1328C54.9888 79.1616 53.184 79.1832 50.9568 79.1832C48.7296 79.1832 46.9248 79.1616 46.9248 79.1328C46.9248 79.104 48.7296 79.0848 50.9568 79.0848C53.184 79.0848 54.9888 79.1064 54.9888 79.1328Z" fill="#E0E0E0" />
        <path d="M54.9888 80.9641C54.9888 80.9929 53.184 81.0145 50.9568 81.0145C48.7296 81.0145 46.9248 80.9929 46.9248 80.9641C46.9248 80.9353 48.7296 80.9161 50.9568 80.9161C53.184 80.9161 54.9888 80.9377 54.9888 80.9641Z" fill="#E0E0E0" />
        <path d="M37.1232 76.296H20.1648V78.3096H37.1232V76.296Z" fill="#EBEBEB" />
        <path d="M54.9048 83.1049H46.4352V89.1481H54.9048V83.1049Z" fill="#FAFAFA" />
        <path d="M46.5311 82.884H10.4879V89.364H46.5311V82.884Z" fill="#F5F5F5" />
        <path d="M46.2672 83.3232H55.3704C55.3991 83.3232 55.4275 83.3176 55.454 83.3066C55.4805 83.2956 55.5046 83.2795 55.5248 83.2593C55.5451 83.239 55.5612 83.2149 55.5722 83.1884C55.5832 83.1619 55.5888 83.1335 55.5888 83.1048C55.5888 83.0467 55.5659 82.9909 55.525 82.9495C55.4841 82.9082 55.4286 82.8847 55.3704 82.884H46.2672V83.3232Z" fill="#F5F5F5" />
        <path d="M46.2672 88.9272H55.488C55.5147 88.9272 55.5404 88.9379 55.5593 88.9568C55.5782 88.9757 55.5888 89.0013 55.5888 89.028V89.268C55.5888 89.2948 55.5782 89.3204 55.5593 89.3393C55.5404 89.3582 55.5147 89.3688 55.488 89.3688H46.2672V88.9296V88.9272Z" fill="#F5F5F5" />
        <path d="M54.9048 84.2521C54.9048 84.2785 53.028 84.3025 50.7168 84.3025C48.4056 84.3025 46.5288 84.2785 46.5288 84.2521C46.5288 84.2257 48.4032 84.2017 50.7168 84.2017C53.0304 84.2017 54.9048 84.2257 54.9048 84.2521Z" fill="#E0E0E0" />
        <path d="M54.9048 85.3944C54.9048 85.4232 53.028 85.4448 50.7168 85.4448C48.4056 85.4448 46.5288 85.4232 46.5288 85.3944C46.5288 85.3656 48.4032 85.3464 50.7168 85.3464C53.0304 85.3464 54.9048 85.368 54.9048 85.3944Z" fill="#E0E0E0" />
        <path d="M54.9048 86.5392C54.9048 86.5656 53.028 86.5872 50.7168 86.5872C48.4056 86.5872 46.5288 86.5656 46.5288 86.5392C46.5288 86.5128 48.4032 86.4888 50.7168 86.4888C53.0304 86.4888 54.9048 86.5104 54.9048 86.5392Z" fill="#E0E0E0" />
        <path d="M54.9048 87.6816C54.9048 87.708 53.028 87.7296 50.7168 87.7296C48.4056 87.7296 46.5288 87.708 46.5288 87.6816C46.5288 87.6552 48.4032 87.6312 50.7168 87.6312C53.0304 87.6312 54.9048 87.6528 54.9048 87.6816Z" fill="#E0E0E0" />
        <path d="M56.1887 89.9424H47.5439V106.322H56.1887V89.9424Z" fill="#EBEBEB" />
        <path d="M47.544 89.3665H6.96716V107.126H47.544V89.3665Z" fill="#E0E0E0" />
        <path d="M56.8656 107.124H46.4352V105.972H56.8656C57.0182 105.973 57.1643 106.034 57.2722 106.141C57.3801 106.249 57.4409 106.395 57.4416 106.548C57.4416 106.624 57.4267 106.699 57.3977 106.768C57.3688 106.838 57.3264 106.902 57.2729 106.955C57.2194 107.009 57.1559 107.051 57.086 107.08C57.0161 107.109 56.9412 107.124 56.8656 107.124Z" fill="#E0E0E0" />
        <path d="M46.4352 89.3665H57.1776C57.2123 89.3665 57.2466 89.3733 57.2786 89.3866C57.3106 89.3998 57.3397 89.4193 57.3643 89.4438C57.3888 89.4683 57.4082 89.4974 57.4215 89.5294C57.4348 89.5615 57.4416 89.5958 57.4416 89.6305V90.2545C57.4416 90.3245 57.4138 90.3916 57.3643 90.4411C57.3147 90.4906 57.2476 90.5185 57.1776 90.5185H46.4352V89.3665Z" fill="#E0E0E0" />
        <path d="M56.1887 92.1361C56.1887 92.1649 54.2543 92.1865 51.8687 92.1865C49.4831 92.1865 47.5487 92.1649 47.5487 92.1361C47.5487 92.1073 49.4831 92.0881 51.8687 92.0881C54.2543 92.0881 56.1887 92.1097 56.1887 92.1361Z" fill="#E0E0E0" />
        <path d="M56.1887 94.2384C56.1887 94.2648 54.2543 94.2864 51.8687 94.2864C49.4831 94.2864 47.5487 94.2648 47.5487 94.2384C47.5487 94.212 49.4831 94.188 51.8687 94.188C54.2543 94.188 56.1887 94.2096 56.1887 94.2384Z" fill="#E0E0E0" />
        <path d="M56.1887 96.3385C56.1887 96.3649 54.2543 96.3889 51.8687 96.3889C49.4831 96.3889 47.5487 96.3649 47.5487 96.3385C47.5487 96.3121 49.4831 96.2881 51.8687 96.2881C54.2543 96.2881 56.1887 96.3121 56.1887 96.3385Z" fill="#E0E0E0" />
        <path d="M56.1887 98.4384C56.1887 98.4672 54.2543 98.4888 51.8687 98.4888C49.4831 98.4888 47.5487 98.4672 47.5487 98.4384C47.5487 98.4096 49.4831 98.3904 51.8687 98.3904C54.2543 98.3904 56.1887 98.412 56.1887 98.4384Z" fill="#E0E0E0" />
        <path d="M56.1887 100.541C56.1887 100.567 54.2543 100.589 51.8687 100.589C49.4831 100.589 47.5487 100.567 47.5487 100.541C47.5487 100.514 49.4831 100.49 51.8687 100.49C54.2543 100.49 56.1887 100.512 56.1887 100.541Z" fill="#E0E0E0" />
        <path d="M56.1887 102.641C56.1887 102.667 54.2543 102.691 51.8687 102.691C49.4831 102.691 47.5487 102.667 47.5487 102.641C47.5487 102.614 49.4831 102.59 51.8687 102.59C54.2543 102.59 56.1887 102.614 56.1887 102.641Z" fill="#E0E0E0" />
        <path d="M56.1887 104.741C56.1887 104.77 54.2543 104.791 51.8687 104.791C49.4831 104.791 47.5487 104.77 47.5487 104.741C47.5487 104.712 49.4831 104.693 51.8687 104.693C54.2543 104.693 56.1887 104.714 56.1887 104.741Z" fill="#E0E0E0" />
        <path d="M20.8511 99.216V100.205C20.8511 101.405 20.2559 102.074 19.1087 102.074C17.9615 102.074 17.3663 101.395 17.3663 100.205V96.3384C17.3663 95.1384 17.9615 94.4664 19.1087 94.4664C20.2559 94.4664 20.8511 95.148 20.8511 96.3384V97.0584H19.7471V96.264C19.7471 95.7312 19.5071 95.5296 19.1423 95.5296C18.7775 95.5296 18.5351 95.7312 18.5351 96.264V100.279C18.5351 100.812 18.7751 100.999 19.1423 100.999C19.5095 100.999 19.7471 100.81 19.7471 100.279V99.216H20.8511Z" fill="#EBEBEB" />
        <path d="M21.468 96.3384C21.468 95.1384 22.0944 94.4664 23.2416 94.4664C24.3888 94.4664 25.0152 95.148 25.0152 96.3384V100.205C25.0152 101.405 24.3888 102.074 23.2416 102.074C22.0944 102.074 21.468 101.395 21.468 100.205V96.3384ZM22.6368 100.279C22.6368 100.812 22.8768 101.014 23.2416 101.014C23.6064 101.014 23.8464 100.812 23.8464 100.279V96.264C23.8464 95.7312 23.6064 95.5296 23.2416 95.5296C22.8768 95.5296 22.6368 95.7312 22.6368 96.264V100.279Z" fill="#EBEBEB" />
        <path d="M25.7688 94.5601H26.9376V100.934H28.8576V102H25.7688V94.5601Z" fill="#EBEBEB" />
        <path d="M29.2799 96.3384C29.2799 95.1384 29.9063 94.4664 31.0535 94.4664C32.2007 94.4664 32.8295 95.148 32.8295 96.3384V100.205C32.8295 101.405 32.2031 102.074 31.0535 102.074C29.9039 102.074 29.2799 101.395 29.2799 100.205V96.3384ZM30.4487 100.279C30.4487 100.812 30.6887 101.014 31.0535 101.014C31.4183 101.014 31.6607 100.812 31.6607 100.279V96.264C31.6607 95.7312 31.4207 95.5296 31.0535 95.5296C30.6863 95.5296 30.4487 95.7312 30.4487 96.264V100.279Z" fill="#EBEBEB" />
        <path d="M34.6943 94.5601V100.298C34.6943 100.829 34.9343 101.018 35.2991 101.018C35.6639 101.018 35.9039 100.826 35.9039 100.298V94.5601H37.0103V100.224C37.0103 101.412 36.4151 102.094 35.2679 102.094C34.1207 102.094 33.5255 101.412 33.5255 100.224V94.5601H34.6943Z" fill="#EBEBEB" />
        <path d="M40.2504 102C40.1519 101.706 40.1151 101.395 40.1424 101.086V99.9169C40.1424 99.2257 39.9024 98.9713 39.3792 98.9713H38.9736V102H37.8048V94.5601H39.5688C40.7688 94.5601 41.3016 95.1241 41.3016 96.2713V96.8545C41.3016 97.6201 41.0616 98.1193 40.536 98.3641C41.1216 98.6041 41.3112 99.1705 41.3112 99.9457V101.095C41.2902 101.402 41.3344 101.709 41.4408 101.998L40.2504 102ZM38.9736 95.6257V97.9081H39.432C39.8664 97.9081 40.1328 97.7185 40.1328 97.1233V96.3889C40.1328 95.8585 39.9528 95.6257 39.5376 95.6257H38.9736Z" fill="#EBEBEB" />
        <path d="M20.5992 85.44H19.7472L19.7928 85.2192H21.7488L21.7008 85.44H20.8512L20.412 87.6336H20.16L20.5992 85.44Z" fill="#E0E0E0" />
        <path d="M23.3904 85.8169L22.0656 87.8665C21.84 88.2121 21.672 88.3201 21.4104 88.3201C21.3313 88.3237 21.2522 88.3114 21.178 88.2837C21.1037 88.2561 21.0359 88.2138 20.9784 88.1593L21.108 87.9793C21.1496 88.0222 21.1997 88.0561 21.255 88.0788C21.3104 88.1015 21.3698 88.1126 21.4296 88.1113C21.5856 88.1113 21.7056 88.0369 21.8472 87.8161L21.9744 87.6241L21.5232 85.8193H21.7632L22.1472 87.3601L23.1384 85.8145L23.3904 85.8169Z" fill="#E0E0E0" />
        <path d="M25.4064 86.568C25.4142 86.7075 25.3935 86.847 25.3453 86.9781C25.2972 87.1092 25.2227 87.2291 25.1264 87.3303C25.0302 87.4315 24.9142 87.5119 24.7857 87.5665C24.6572 87.6212 24.5188 87.6489 24.3792 87.648C24.237 87.6629 24.0937 87.6326 23.9697 87.5615C23.8457 87.4905 23.7471 87.3822 23.688 87.252L23.4816 88.3008H23.2416L23.736 85.8168H23.976L23.9184 86.1072C24.0085 86.0065 24.1198 85.9269 24.2443 85.8742C24.3687 85.8215 24.5033 85.797 24.6384 85.8024C24.7404 85.7973 24.8423 85.8136 24.9377 85.8502C25.033 85.8868 25.1196 85.943 25.192 86.0151C25.2643 86.0872 25.3208 86.1737 25.3577 86.2689C25.3946 86.3641 25.4112 86.466 25.4064 86.568ZM25.1664 86.5824C25.172 86.5039 25.1601 86.4251 25.1315 86.3517C25.103 86.2783 25.0586 86.2122 25.0014 86.158C24.9443 86.1038 24.8758 86.063 24.801 86.0385C24.7262 86.0139 24.6469 86.0063 24.5688 86.016C24.4586 86.0159 24.3497 86.0388 24.2488 86.0831C24.148 86.1275 24.0576 86.1924 23.9833 86.2737C23.909 86.3551 23.8524 86.451 23.8173 86.5554C23.7821 86.6598 23.7692 86.7703 23.7792 86.88C23.7731 86.9586 23.7847 87.0375 23.813 87.111C23.8414 87.1845 23.8859 87.2508 23.9432 87.3048C24.0005 87.3589 24.0692 87.3995 24.1442 87.4236C24.2192 87.4477 24.2987 87.4547 24.3768 87.444C24.4861 87.4431 24.5941 87.4196 24.6938 87.3749C24.7936 87.3303 24.8831 87.2654 24.9566 87.1845C25.0301 87.1036 25.086 87.0083 25.1209 86.9047C25.1557 86.8011 25.1688 86.6913 25.1592 86.5824H25.1664Z" fill="#E0E0E0" />
        <path d="M25.6919 86.88C25.6853 86.7392 25.7077 86.5985 25.7577 86.4667C25.8077 86.3349 25.8842 86.2148 25.9826 86.1137C26.0809 86.0127 26.1989 85.9329 26.3293 85.8794C26.4598 85.8259 26.5998 85.7997 26.7407 85.8024C27.2447 85.8024 27.5663 86.1 27.5663 86.568C27.5729 86.709 27.5505 86.8498 27.5006 86.9817C27.4506 87.1137 27.3741 87.2339 27.2758 87.3352C27.1775 87.4364 27.0595 87.5164 26.9291 87.5702C26.7987 87.624 26.6586 87.6505 26.5175 87.648C26.4112 87.6595 26.3037 87.6479 26.2022 87.6141C26.1008 87.5804 26.0078 87.5252 25.9295 87.4524C25.8512 87.3796 25.7895 87.2908 25.7485 87.192C25.7075 87.0933 25.6882 86.9869 25.6919 86.88ZM27.3215 86.5824C27.3271 86.5039 27.3152 86.4251 27.2867 86.3517C27.2582 86.2783 27.2137 86.2122 27.1566 86.158C27.0994 86.1039 27.031 86.063 26.9562 86.0385C26.8814 86.0139 26.802 86.0063 26.7239 86.016C26.6154 86.0174 26.5083 86.0409 26.4091 86.0851C26.31 86.1292 26.2208 86.1931 26.1472 86.2728C26.0735 86.3525 26.0169 86.4464 25.9807 86.5488C25.9445 86.6511 25.9295 86.7597 25.9367 86.868C25.9311 86.9465 25.943 87.0252 25.9715 87.0985C26 87.1718 26.0445 87.2378 26.1017 87.2918C26.1589 87.3458 26.2274 87.3864 26.3022 87.4107C26.377 87.4349 26.4563 87.4422 26.5343 87.432C26.6429 87.4313 26.7501 87.4084 26.8494 87.3646C26.9487 87.3208 27.038 87.2572 27.1118 87.1776C27.1855 87.098 27.2422 87.0041 27.2783 86.9017C27.3143 86.7994 27.3291 86.6907 27.3215 86.5824Z" fill="#E0E0E0" />
        <path d="M29.9136 85.8168L29.5968 87.4104C29.4696 88.0536 29.1312 88.3176 28.5408 88.3176C28.2473 88.333 27.959 88.236 27.7344 88.0464L27.8784 87.8592C28.0656 88.025 28.3102 88.1111 28.56 88.0992C28.6542 88.1082 28.7493 88.0984 28.8398 88.0705C28.9303 88.0427 29.0144 87.9972 29.0873 87.9368C29.1602 87.8764 29.2204 87.8022 29.2646 87.7185C29.3088 87.6347 29.336 87.5431 29.3448 87.4488L29.388 87.2496C29.2975 87.3502 29.1862 87.43 29.0619 87.4834C28.9376 87.5369 28.8032 87.5627 28.668 87.5592C28.188 87.5592 27.8664 87.2808 27.8664 86.8392C27.8627 86.7026 27.887 86.5667 27.9377 86.4398C27.9885 86.3129 28.0646 86.1977 28.1615 86.1013C28.2584 86.0049 28.3739 85.9293 28.501 85.8792C28.6281 85.829 28.7642 85.8053 28.9008 85.8096C29.0476 85.7949 29.1952 85.8271 29.3225 85.9018C29.4497 85.9764 29.55 86.0895 29.6088 86.2248L29.6856 85.824L29.9136 85.8168ZM29.5008 86.5368C29.5008 86.2056 29.2776 86.0088 28.9008 86.0088C28.7953 86.0061 28.6904 86.0251 28.5926 86.0646C28.4948 86.1041 28.4061 86.1632 28.3321 86.2384C28.2581 86.3135 28.2003 86.4031 28.1623 86.5015C28.1243 86.5999 28.1069 86.705 28.1112 86.8104C28.1112 87.1416 28.332 87.3384 28.7112 87.3384C28.816 87.3411 28.9203 87.3223 29.0176 87.2833C29.1149 87.2443 29.2032 87.1858 29.2772 87.1114C29.3511 87.037 29.409 86.9483 29.4475 86.8508C29.4859 86.7532 29.5041 86.6489 29.5008 86.544V86.5368Z" fill="#E0E0E0" />
        <path d="M31.5143 85.8024L31.4687 86.0424H31.4015C31.0151 86.0424 30.7559 86.2632 30.6647 86.7144L30.4823 87.636H30.2423L30.6023 85.8216H30.8423L30.7679 86.16C30.8497 86.0398 30.9618 85.9434 31.0929 85.8806C31.224 85.8178 31.3694 85.7908 31.5143 85.8024Z" fill="#E0E0E0" />
        <path d="M33.5999 85.8169L33.2375 87.6313H32.9975L33.0551 87.3457C32.9661 87.4437 32.857 87.5215 32.7352 87.5736C32.6135 87.6258 32.4819 87.6512 32.3495 87.6481C32.2454 87.6568 32.1406 87.6431 32.0421 87.6079C31.9437 87.5727 31.854 87.5169 31.7789 87.4441C31.7039 87.3714 31.6453 87.2834 31.6071 87.1861C31.5689 87.0888 31.552 86.9845 31.5575 86.8801C31.55 86.741 31.571 86.6019 31.6191 86.4713C31.6673 86.3406 31.7416 86.2212 31.8376 86.1203C31.9335 86.0194 32.0491 85.9392 32.1771 85.8845C32.3052 85.8299 32.4431 85.802 32.5823 85.8025C32.7242 85.7875 32.8673 85.8174 32.9913 85.888C33.1153 85.9586 33.214 86.0664 33.2735 86.1961L33.3503 85.8169H33.5999ZM33.1919 86.5825C33.1975 86.5039 33.1856 86.4251 33.1571 86.3518C33.1286 86.2784 33.0841 86.2122 33.027 86.1581C32.9698 86.1039 32.9014 86.0631 32.8266 86.0385C32.7518 86.014 32.6724 86.0063 32.5943 86.0161C32.4859 86.0175 32.3789 86.0409 32.2798 86.0851C32.1808 86.1293 32.0918 86.1932 32.0183 86.273C31.9449 86.3528 31.8885 86.4467 31.8525 86.549C31.8166 86.6513 31.802 86.7599 31.8095 86.8681C31.8036 86.946 31.8151 87.0242 31.843 87.0971C31.871 87.17 31.9148 87.2358 31.9713 87.2898C32.0278 87.3437 32.0955 87.3845 32.1696 87.4091C32.2437 87.4337 32.3224 87.4415 32.3999 87.4321C32.5084 87.4314 32.6157 87.4084 32.715 87.3646C32.8143 87.3209 32.9036 87.2572 32.9774 87.1776C33.0511 87.098 33.1078 87.0041 33.1439 86.9018C33.1799 86.7994 33.1947 86.6908 33.1871 86.5825H33.1919Z" fill="#E0E0E0" />
        <path d="M35.9496 86.568C35.9575 86.7075 35.9367 86.847 35.8885 86.9781C35.8404 87.1092 35.7659 87.2291 35.6696 87.3303C35.5734 87.4315 35.4574 87.5119 35.3289 87.5665C35.2004 87.6212 35.062 87.6489 34.9224 87.648C34.7802 87.6629 34.637 87.6326 34.5129 87.5615C34.3889 87.4905 34.2903 87.3822 34.2312 87.252L34.0248 88.3008H33.7848L34.2768 85.8168H34.5168L34.4592 86.1072C34.5475 86.0081 34.6564 85.9295 34.7783 85.8769C34.9002 85.8242 35.0321 85.7988 35.1648 85.8024C35.2681 85.7952 35.3717 85.8099 35.4689 85.8456C35.5661 85.8813 35.6547 85.9371 35.7288 86.0094C35.8029 86.0817 35.8609 86.1688 35.8989 86.2651C35.937 86.3614 35.9542 86.4646 35.9496 86.568ZM35.7096 86.5824C35.7152 86.5039 35.7033 86.4251 35.6747 86.3517C35.6462 86.2783 35.6018 86.2122 35.5446 86.158C35.4875 86.1038 35.4191 86.063 35.3442 86.0385C35.2694 86.0139 35.1901 86.0063 35.112 86.016C35.0016 86.0156 34.8924 86.0382 34.7913 86.0824C34.6902 86.1266 34.5995 86.1915 34.5249 86.2729C34.4503 86.3542 34.3936 86.4502 34.3583 86.5548C34.323 86.6594 34.31 86.7701 34.32 86.88C34.314 86.9584 34.3255 87.0371 34.3537 87.1104C34.382 87.1837 34.4262 87.2498 34.4833 87.3038C34.5403 87.3578 34.6087 87.3985 34.6834 87.4227C34.7581 87.447 34.8373 87.4543 34.9152 87.444C35.0249 87.4438 35.1334 87.4208 35.2338 87.3764C35.3341 87.332 35.4241 87.2673 35.4982 87.1863C35.5722 87.1052 35.6285 87.0097 35.6637 86.9058C35.6989 86.8019 35.712 86.6917 35.7024 86.5824H35.7096Z" fill="#E0E0E0" />
        <path d="M38.1456 86.4C38.146 86.4693 38.1396 86.5384 38.1264 86.6064L37.92 87.6384H37.68L37.8888 86.604C37.8987 86.5494 37.9043 86.494 37.9056 86.4384C37.9056 86.1792 37.7496 86.0304 37.4256 86.0304C37.2446 86.0216 37.0671 86.0827 36.93 86.2011C36.7928 86.3195 36.7065 86.4861 36.6888 86.6664L36.4944 87.6384H36.2544L36.7656 85.0776H37.0056L36.8016 86.0952C36.8896 86.0002 36.9972 85.9254 37.1169 85.8761C37.2367 85.8267 37.3658 85.8041 37.4952 85.8096C37.92 85.8024 38.1456 86.0232 38.1456 86.4Z" fill="#E0E0E0" />
        <path d="M40.4399 85.8168L39.1199 87.8664C38.8943 88.212 38.7263 88.3176 38.4647 88.3176C38.3856 88.3213 38.3065 88.309 38.2323 88.2813C38.1581 88.2537 38.0902 88.2114 38.0327 88.1568L38.1647 87.9768C38.2057 88.02 38.2553 88.054 38.3103 88.0767C38.3653 88.0995 38.4244 88.1104 38.4839 88.1088C38.6399 88.1088 38.7599 88.0344 38.9015 87.8136L39.0311 87.6216L38.5775 85.8168H38.8175L39.1919 87.3624L40.1831 85.8168H40.4399Z" fill="#E0E0E0" />
        <path d="M45.9071 11.2296H9.09351L15.0935 15.5496V24.0624C15.0932 24.2961 15.139 24.5275 15.2282 24.7434C15.3175 24.9593 15.4485 25.1554 15.6137 25.3206C15.7789 25.4858 15.9751 25.6168 16.191 25.7061C16.4069 25.7954 16.6383 25.8411 16.8719 25.8408H45.9119C46.3836 25.8408 46.8359 25.6535 47.1694 25.3199C47.5029 24.9864 47.6903 24.5341 47.6903 24.0624V13.008C47.6903 12.7741 47.6441 12.5424 47.5545 12.3263C47.4648 12.1103 47.3334 11.914 47.1677 11.7488C47.0021 11.5836 46.8055 11.4527 46.5891 11.3636C46.3728 11.2745 46.1411 11.229 45.9071 11.2296Z" fill="#F5F5F5" />
        <path d="M44.3712 17.2464C44.3712 17.2824 38.82 17.3112 31.9728 17.3112C25.1256 17.3112 19.572 17.28 19.572 17.2464C19.572 17.2128 25.1232 17.1816 31.9728 17.1816C38.8224 17.1816 44.3712 17.2104 44.3712 17.2464Z" fill="#E0E0E0" />
        <path d="M44.3712 20.5152C44.3712 20.5512 38.82 20.58 31.9728 20.58C25.1256 20.58 19.572 20.5512 19.572 20.5152C19.572 20.4792 25.1232 20.4504 31.9728 20.4504C38.8224 20.4504 44.3712 20.4792 44.3712 20.5152Z" fill="#E0E0E0" />
        <path d="M173.585 107.124C173.585 107.16 135.943 107.186 89.5248 107.186C43.1064 107.186 5.4552 107.16 5.4552 107.124C5.4552 107.088 43.0872 107.062 89.5248 107.062C135.962 107.062 173.585 107.09 173.585 107.124Z" fill="#263238" />
        <path d="M157.788 94.8744C157.788 94.8744 151.426 87.5544 149.026 80.2344C146.626 72.9144 147.766 73.7544 147.766 73.7544C147.766 73.7544 151.006 80.868 153.466 84.3024C155.926 87.7368 160.32 92.7744 160.32 92.7744L157.788 94.8744Z" fill="#455A64" />
        <path d="M159.055 74.88C159.013 74.803 158.945 74.7434 158.864 74.7118C158.782 74.6803 158.692 74.6788 158.609 74.7076C158.526 74.7364 158.456 74.7937 158.412 74.8693C158.368 74.9448 158.351 75.0337 158.366 75.12C158.753 77.6928 159.593 83.7288 159.566 87.6432C159.523 92.7288 159.566 94.6944 159.566 94.6944H162.206C162.206 94.6944 161.726 84.1824 161.138 80.976C160.721 78.7344 159.84 76.2384 159.055 74.88Z" fill="#455A64" />
        <path d="M160.5 93.84C161.609 91.3257 162.344 88.6621 162.679 85.9344C162.898 84.0624 162.506 81.5328 161.928 78.156C161.706 76.9213 161.594 75.6691 161.594 74.4144C161.595 74.2745 161.643 74.1388 161.729 74.0287C161.816 73.9186 161.936 73.8404 162.072 73.8063C162.208 73.7723 162.351 73.7843 162.479 73.8405C162.607 73.8967 162.713 73.9939 162.78 74.1168C163.099 74.688 164.026 76.6368 164.261 77.856C164.902 81.1896 165.626 82.8576 165.072 86.016C164.518 89.1744 162.466 94.0512 162.466 94.0512L160.5 93.84Z" fill="#455A64" />
        <path d="M162.883 94.0584C162.883 94.0584 169.87 79.0464 170.354 76.8192C170.839 74.592 172.483 69.4608 172.678 69.7512C172.872 70.0416 173.158 72.7536 171.902 75.852C170.647 78.9504 165.269 94.5144 165.269 94.5144H162.883" fill="#455A64" />
        <path d="M159.734 93.3864C159.666 93.3465 159.6 93.3016 159.538 93.252C159.415 93.1584 159.226 93.0264 158.998 92.8392C158.344 92.3192 157.717 91.7657 157.121 91.1808C155.153 89.2447 153.449 87.0579 152.052 84.6768C150.659 82.2973 149.501 79.7879 148.594 77.184C148.243 76.188 147.986 75.372 147.821 74.8032C147.734 74.5224 147.674 74.2992 147.634 74.1504C147.608 74.0723 147.591 73.9919 147.581 73.9104C147.614 73.9825 147.641 74.0572 147.662 74.1336L147.876 74.7792C148.058 75.3408 148.33 76.152 148.692 77.1408C149.628 79.7259 150.796 82.221 152.182 84.5952C153.574 86.9677 155.26 89.1553 157.2 91.1064C157.946 91.8504 158.587 92.4144 159.038 92.7864C159.262 92.9808 159.444 93.12 159.562 93.2208C159.624 93.2712 159.681 93.3266 159.734 93.3864Z" fill="#263238" />
        <path d="M160.498 86.1839C160.465 86.0395 160.444 85.8926 160.435 85.7447C160.402 85.4327 160.358 85.0247 160.308 84.5447C160.198 83.5271 160.025 82.1279 159.778 80.5895C159.53 79.0511 159.254 77.6663 159.041 76.6679C158.938 76.1879 158.851 75.7895 158.786 75.4847C158.748 75.3408 158.721 75.1939 158.707 75.0455C158.764 75.183 158.809 75.3251 158.842 75.4703C158.921 75.7463 159.024 76.1471 159.144 76.6439C159.384 77.6375 159.677 79.0223 159.924 80.5655C160.171 82.1087 160.327 83.5127 160.404 84.5327C160.447 85.0439 160.474 85.4567 160.486 85.7327C160.505 85.8823 160.509 86.0335 160.498 86.1839Z" fill="#263238" />
        <path d="M162.134 74.004C162.168 74.0653 162.195 74.1296 162.216 74.196C162.271 74.3376 162.341 74.5224 162.427 74.7528C162.514 74.9832 162.624 75.2928 162.727 75.648C162.83 76.0032 162.967 76.3968 163.066 76.848L163.238 77.5536C163.298 77.7936 163.339 78.06 163.392 78.3264C163.507 78.8592 163.577 79.4376 163.661 80.0448C163.98 82.6883 163.884 85.3653 163.378 87.9792C163.25 88.5792 163.138 89.1504 162.986 89.6736C162.914 89.9352 162.854 90.192 162.778 90.432C162.701 90.672 162.626 90.912 162.554 91.1256C162.42 91.5696 162.259 91.956 162.13 92.2992C162 92.6424 161.875 92.9352 161.767 93.1704L161.527 93.7104C161.502 93.7751 161.469 93.837 161.431 93.8952C161.448 93.8275 161.471 93.7616 161.501 93.6984L161.722 93.1464C161.822 92.9064 161.942 92.616 162.06 92.2704C162.178 91.9248 162.336 91.536 162.463 91.092C162.53 90.8712 162.602 90.6408 162.677 90.4008C162.751 90.1608 162.806 89.904 162.876 89.6424C163.022 89.1192 163.116 88.5504 163.253 87.9624C163.74 85.3601 163.836 82.6994 163.536 80.0688C163.454 79.464 163.39 78.888 163.282 78.3576C163.229 78.0912 163.19 77.832 163.135 77.5872C163.08 77.3424 163.025 77.1072 162.972 76.8816C162.878 76.4304 162.751 76.032 162.655 75.6816C162.559 75.3312 162.466 75.0288 162.382 74.784C162.298 74.5392 162.245 74.3616 162.199 74.2176C162.17 74.1489 162.149 74.0773 162.134 74.004Z" fill="#263238" />
        <path d="M172.596 70.0536C172.6 70.0758 172.6 70.0986 172.596 70.1208C172.596 70.1736 172.577 70.2384 172.565 70.3152C172.534 70.4856 172.495 70.74 172.428 71.064C172.294 71.7096 172.068 72.6384 171.708 73.7664C171.348 74.8944 170.885 76.2144 170.318 77.6688C169.752 79.1232 169.099 80.7048 168.48 82.3896C167.861 84.0744 167.364 85.716 166.908 87.204C166.452 88.692 166.03 90.036 165.614 91.14C165.295 92.0156 164.927 92.8729 164.513 93.708C164.369 94.0056 164.239 94.2264 164.158 94.38L164.059 94.5504C164.049 94.5713 164.036 94.5907 164.021 94.608C164.026 94.5854 164.034 94.5637 164.045 94.5432L164.131 94.3656C164.206 94.2072 164.326 93.9816 164.46 93.6816C164.741 93.0864 165.12 92.2128 165.516 91.104C165.912 89.9952 166.332 88.6584 166.778 87.1656C167.225 85.6728 167.707 84.0264 168.338 82.3392C168.97 80.652 169.62 79.068 170.191 77.6184C170.762 76.1688 171.25 74.8536 171.607 73.7328C171.965 72.612 172.21 71.6904 172.361 71.0496C172.438 70.7304 172.486 70.4784 172.526 70.3104C172.546 70.2336 172.56 70.1712 172.572 70.1184C172.577 70.0956 172.585 70.0738 172.596 70.0536Z" fill="#263238" />
        <path d="M151.058 66.7368C150.962 66.6447 150.838 66.5872 150.705 66.5734C150.572 66.5596 150.439 66.5903 150.325 66.6606C150.212 66.7309 150.125 66.8368 150.078 66.9618C150.032 67.0868 150.028 67.2238 150.067 67.3512C150.306 68.123 150.6 68.8769 150.946 69.6072C151.906 71.6496 154.728 78.9672 156.048 82.992C157.368 87.0168 159.228 94.512 159.228 94.512L162.048 94.056C162.048 94.056 159.468 81.732 156.96 77.28C154.922 73.7208 152.897 68.5656 151.058 66.7368Z" fill="#455A64" />
        <path d="M156.818 85.5072C156.88 85.6141 156.929 85.7277 156.965 85.8456C157.049 86.0664 157.162 86.388 157.289 86.7912C157.548 87.5952 157.867 88.7112 158.186 89.9664C158.506 91.2216 158.772 92.352 158.957 93.1752C159.043 93.564 159.113 93.8952 159.17 94.152C159.201 94.2706 159.221 94.392 159.228 94.5144C159.177 94.4028 159.139 94.2862 159.113 94.1664C159.046 93.9096 158.959 93.5856 158.856 93.2064L158.042 90C157.723 88.752 157.421 87.6264 157.188 86.8176L156.91 85.8576C156.868 85.7441 156.837 85.6267 156.818 85.5072Z" fill="#263238" />
        <path d="M160.644 94.2864C160.636 94.2622 160.632 94.2372 160.63 94.212C160.63 94.152 160.61 94.08 160.596 93.9888C160.567 93.7944 160.541 93.5088 160.481 93.1344C160.378 92.3952 160.193 91.3272 159.89 90.0264C159.529 88.5029 159.088 86.9992 158.57 85.5216C157.992 83.8416 157.267 82.0464 156.444 80.1768C154.786 76.4448 153.13 73.1352 152.04 70.6896C151.49 69.468 151.063 68.472 150.782 67.776C150.638 67.4304 150.542 67.1592 150.466 66.9744C150.434 66.888 150.408 66.8208 150.386 66.7632C150.376 66.7403 150.369 66.716 150.365 66.6912C150.365 66.6912 150.379 66.7128 150.401 66.7584C150.422 66.804 150.456 66.8808 150.494 66.9624L150.835 67.7544C151.133 68.4408 151.574 69.4344 152.136 70.6344C153.247 73.0704 154.92 76.3704 156.581 80.1072C157.404 81.9792 158.126 83.7888 158.7 85.4664C159.214 86.9527 159.646 88.4662 159.994 90C160.227 91.0302 160.409 92.0715 160.538 93.12C160.589 93.492 160.606 93.7824 160.627 93.9792C160.627 94.0704 160.639 94.1424 160.644 94.2024C160.648 94.2302 160.648 94.2585 160.644 94.2864Z" fill="#263238" />
        <path d="M162.048 94.0584C162.004 93.901 161.972 93.7406 161.952 93.5784C161.897 93.2472 161.822 92.8104 161.734 92.2824C161.539 91.1904 161.254 89.6856 160.817 88.0488C160.38 86.412 159.917 84.9504 159.552 83.904L159.12 82.6704C159.057 82.5213 159.008 82.3671 158.971 82.2096C159.05 82.3506 159.119 82.4974 159.175 82.6488C159.295 82.9344 159.466 83.352 159.655 83.8728C160.165 85.2294 160.603 86.6121 160.966 88.0152C161.329 89.418 161.621 90.8382 161.842 92.2704C161.923 92.82 161.983 93.2664 162.014 93.576C162.038 93.7357 162.049 93.897 162.048 94.0584Z" fill="#263238" />
        <path d="M167.834 93.6528H156.828V107.062H167.834V93.6528Z" fill="#525252" />
        <path d="M164.323 93.6528H154.56V107.062H164.323V93.6528Z" fill="#9E9E9E" />
        <path d="M21.2472 88.992C19.3704 87.792 16.7736 87.768 14.9496 89.0424C13.2168 90.2544 12.336 92.4576 12.4128 94.5624C12.4896 96.6672 13.5144 99.2544 15.4272 100.366L21.0432 100.342C21.9457 99.6847 22.6912 98.8357 23.2258 97.8558C23.7603 96.8759 24.0707 95.7896 24.1344 94.6752C24.2184 92.4576 23.1216 90.192 21.2472 88.992Z" fill="#455A64" />
        <path d="M18.4801 100.577C18.4537 100.418 18.4424 100.257 18.4465 100.097C18.4465 99.7512 18.4224 99.3096 18.408 98.7792C18.3792 97.668 18.336 96.1392 18.2616 94.4376C18.1872 92.736 18.096 91.2072 18.0216 90.096C17.9904 89.568 17.9641 89.136 17.9425 88.7808C17.9271 88.6212 17.9271 88.4604 17.9425 88.3008C17.9826 88.4581 18.0083 88.6188 18.0193 88.7808C18.0577 89.0904 18.1033 89.5392 18.1561 90.0936C18.2569 91.2024 18.3673 92.7336 18.4441 94.4352C18.5209 96.1368 18.5425 97.6728 18.5377 98.7864C18.5377 99.3432 18.5377 99.792 18.5185 100.104C18.5199 100.262 18.507 100.421 18.4801 100.577Z" fill="#263238" />
        <path d="M12.9793 94.092C12.9793 94.14 12.6697 94.1568 12.2977 94.1256C11.9257 94.0944 11.6281 94.0296 11.6305 93.9816C11.6329 93.9336 11.9401 93.9168 12.3121 93.9456C12.6841 93.9744 12.9841 94.0416 12.9793 94.092Z" fill="#263238" />
        <path d="M13.0849 92.196C13.0633 92.2416 12.8017 92.1696 12.4969 92.0328C12.1921 91.896 11.9617 91.752 11.9809 91.7064C12.0001 91.6608 12.2641 91.7352 12.5689 91.8696C12.8737 92.004 13.1041 92.16 13.0849 92.196Z" fill="#263238" />
        <path d="M14.0592 90.7896C14.0328 90.8304 13.7376 90.6912 13.4304 90.4368C13.1232 90.1824 12.9288 89.916 12.9648 89.8848C13.0008 89.8536 13.2456 90.0504 13.5432 90.2976C13.8408 90.5448 14.0856 90.7464 14.0592 90.7896Z" fill="#263238" />
        <path d="M15.0409 89.4624C14.9953 89.4816 14.8537 89.2608 14.7241 88.968C14.5945 88.6752 14.5249 88.4208 14.5705 88.3992C14.6161 88.3776 14.7577 88.6008 14.8873 88.896C15.0169 89.1912 15.0841 89.4432 15.0409 89.4624Z" fill="#263238" />
        <path d="M16.5792 88.5216C16.5336 88.5408 16.3824 88.3056 16.2792 87.9792C16.176 87.6528 16.1688 87.3696 16.2168 87.3624C16.2648 87.3552 16.3536 87.6024 16.4568 87.924C16.56 88.2456 16.6248 88.5 16.5792 88.5216Z" fill="#263238" />
        <path d="M19.1448 87.4584C19.1928 87.4752 19.164 87.6768 19.0824 87.9096C19.0008 88.1424 18.8952 88.3152 18.8424 88.2984C18.7896 88.2816 18.8232 88.0824 18.9048 87.8496C18.9864 87.6168 19.0992 87.4416 19.1448 87.4584Z" fill="#263238" />
        <path d="M21.0504 88.2768C21.084 88.3128 20.9616 88.4808 20.7768 88.6512C20.592 88.8216 20.4168 88.9296 20.3832 88.8912C20.3496 88.8528 20.472 88.6872 20.6544 88.5168C20.8368 88.3464 21.0168 88.2408 21.0504 88.2768Z" fill="#263238" />
        <path d="M22.7257 89.3592C22.7545 89.4 22.6057 89.5488 22.3945 89.6928C22.1833 89.8368 21.9889 89.9184 21.9601 89.8776C21.9313 89.8368 22.0825 89.688 22.2937 89.544C22.5049 89.4 22.6993 89.3184 22.7257 89.3592Z" fill="#263238" />
        <path d="M23.916 90.972C23.9352 91.0176 23.7024 91.1616 23.3928 91.2936C23.0832 91.4256 22.8168 91.4952 22.7976 91.4496C22.7784 91.404 23.0136 91.26 23.3232 91.1304C23.6328 91.0008 23.8968 90.9264 23.916 90.972Z" fill="#263238" />
        <path d="M24.3865 92.7336C24.3865 92.7816 24.1465 92.8536 23.8513 92.8896C23.5561 92.9256 23.3041 92.9184 23.2969 92.868C23.2897 92.8176 23.5369 92.7504 23.8297 92.712C24.1225 92.6736 24.3793 92.6832 24.3865 92.7336Z" fill="#263238" />
        <path d="M24.6289 94.9008C24.6097 94.9464 24.3553 94.8792 24.0625 94.752C23.7697 94.6248 23.5441 94.4832 23.5633 94.4376C23.5825 94.392 23.8393 94.4592 24.1321 94.5864C24.4249 94.7136 24.6505 94.8552 24.6289 94.9008Z" fill="#263238" />
        <path d="M24.4153 96.7608C24.3985 96.8064 24.0769 96.7296 23.7409 96.5088C23.4049 96.288 23.2057 96.0288 23.2393 95.9928C23.2729 95.9568 23.5201 96.1512 23.8393 96.3576C24.1585 96.564 24.4321 96.72 24.4153 96.7608Z" fill="#263238" />
        <path d="M23.4457 98.4528C23.4169 98.4912 23.1601 98.3424 22.9153 98.076C22.6705 97.8096 22.5385 97.5456 22.5769 97.5168C22.6153 97.488 22.8169 97.7016 23.0569 97.9536C23.2969 98.2056 23.4793 98.4144 23.4457 98.4528Z" fill="#263238" />
        <path d="M14.2537 98.652C14.2753 98.6952 14.0137 98.892 13.6513 99.0648C13.2889 99.2376 12.9913 99.36 12.9601 99.3216C12.9289 99.2832 13.2001 99.0816 13.5601 98.9064C13.9201 98.7312 14.2297 98.6088 14.2537 98.652Z" fill="#263238" />
        <path d="M13.4136 97.1208C13.4328 97.1664 13.2168 97.308 12.9336 97.4376C12.6504 97.5672 12.3984 97.6368 12.3768 97.5912C12.3552 97.5456 12.5736 97.404 12.8568 97.2744C13.14 97.1448 13.392 97.0752 13.4136 97.1208Z" fill="#263238" />
        <path d="M12.7969 95.76C12.7969 95.808 12.5377 95.8872 12.2017 95.9352C11.8657 95.9832 11.5921 95.9808 11.5849 95.9352C11.5777 95.8896 11.8441 95.808 12.1777 95.7624C12.5113 95.7168 12.7897 95.7144 12.7969 95.76Z" fill="#263238" />
        <path d="M14.82 95.016C14.8344 95.064 14.58 95.184 14.232 95.2224C13.884 95.2608 13.6056 95.2008 13.6104 95.1528C13.6152 95.1048 13.884 95.0832 14.2104 95.0448C14.5368 95.0064 14.8056 94.968 14.82 95.016Z" fill="#263238" />
        <path d="M16.5024 93.3432C16.5168 93.3888 16.3104 93.4944 16.0224 93.5208C15.7344 93.5472 15.5232 93.4872 15.528 93.4392C15.5328 93.3912 15.7488 93.3696 16.008 93.3432C16.2672 93.3168 16.488 93.2952 16.5024 93.3432Z" fill="#263238" />
        <path d="M16.824 92.0016C16.8072 92.0496 16.584 92.0136 16.3248 91.9248C16.0656 91.836 15.8688 91.7256 15.8856 91.6848C15.9024 91.644 16.1256 91.6728 16.3848 91.764C16.644 91.8552 16.8408 91.956 16.824 92.0016Z" fill="#263238" />
        <path d="M17.4409 90.6456C17.4073 90.6816 17.2537 90.5808 17.1433 90.3888C17.0329 90.1968 17.0233 90.0168 17.0713 90.0048C17.1193 89.9928 17.2009 90.132 17.3113 90.3C17.4217 90.468 17.4769 90.612 17.4409 90.6456Z" fill="#263238" />
        <path d="M16.6969 96.1968C16.7089 96.2448 16.5169 96.3336 16.2649 96.396C16.1465 96.4273 16.0249 96.445 15.9025 96.4488L15.8689 96.3432C15.9337 96.3432 15.9745 96.3432 15.9841 96.3552C15.9937 96.3672 15.9649 96.4056 15.9121 96.4464L15.8761 96.3408C15.9874 96.2882 16.1041 96.2479 16.2241 96.2208C16.4737 96.1608 16.6849 96.1488 16.6969 96.1968Z" fill="#263238" />
        <path d="M17.0401 98.5752C17.0569 98.6208 16.8001 98.76 16.4881 98.8872C16.1761 99.0144 15.8905 99.0792 15.8737 99.0336C15.8569 98.988 16.1137 98.8464 16.4233 98.7216C16.7329 98.5968 17.0257 98.5296 17.0401 98.5752Z" fill="#263238" />
        <path d="M15.144 97.5192C15.1608 97.5648 14.9952 97.6632 14.7768 97.7376C14.5584 97.812 14.3688 97.836 14.352 97.788C14.3352 97.74 14.5008 97.644 14.7192 97.5696C14.9376 97.4952 15.12 97.4712 15.144 97.5192Z" fill="#263238" />
        <path d="M15.2881 92.6808C15.2881 92.7288 14.9905 92.7 14.6617 92.5824C14.3329 92.4648 14.0905 92.3064 14.1121 92.2632C14.1337 92.22 14.4001 92.2992 14.7217 92.412C15.0433 92.5248 15.3001 92.64 15.2881 92.6808Z" fill="#263238" />
        <path d="M19.8865 92.16C19.9153 92.2008 19.7545 92.3544 19.5289 92.5032C19.3033 92.652 19.0969 92.7432 19.0681 92.6976C19.0393 92.652 19.2025 92.5032 19.4281 92.3544C19.6537 92.2056 19.8601 92.112 19.8865 92.16Z" fill="#263238" />
        <path d="M20.1385 94.5408C20.1385 94.5888 19.9777 94.6656 19.7593 94.7112C19.5409 94.7568 19.3561 94.7544 19.3441 94.7112C19.3321 94.668 19.5049 94.5864 19.7233 94.5408C19.9417 94.4952 20.1265 94.4928 20.1385 94.5408Z" fill="#263238" />
        <path d="M20.4289 97.2264C20.4073 97.2696 20.1625 97.2024 19.8841 97.0728C19.6057 96.9432 19.4041 96.8016 19.4041 96.756C19.4041 96.7104 19.6705 96.78 19.9489 96.9096C20.2273 97.0392 20.4481 97.1808 20.4289 97.2264Z" fill="#263238" />
        <path d="M19.812 99.84C19.7736 99.8736 19.6152 99.744 19.4592 99.552C19.3032 99.36 19.2192 99.18 19.2456 99.1488C19.272 99.1176 19.44 99.2472 19.5984 99.4392C19.7568 99.6312 19.8504 99.8064 19.812 99.84Z" fill="#263238" />
        <path d="M19.68 90.396C19.7112 90.4344 19.6056 90.5664 19.4256 90.6552C19.2456 90.744 19.08 90.7512 19.068 90.7032C19.056 90.6552 19.1856 90.5784 19.3464 90.4968C19.5072 90.4152 19.656 90.3576 19.68 90.396Z" fill="#263238" />
        <path d="M21.9409 92.8032C21.9577 92.8488 21.7489 92.964 21.4609 93.0048C21.1729 93.0456 20.9449 92.9904 20.9473 92.9424C20.9497 92.8944 21.1705 92.8632 21.4273 92.8272C21.6841 92.7912 21.9241 92.7576 21.9409 92.8032Z" fill="#263238" />
        <path d="M21.4921 90.6432C21.5137 90.6864 21.3073 90.8352 21.0121 90.9288C20.7169 91.0224 20.4649 91.0224 20.4577 90.9744C20.4505 90.9264 20.6785 90.8472 20.9569 90.756C21.2353 90.6648 21.4681 90.5976 21.4921 90.6432Z" fill="#263238" />
        <path d="M22.4329 96.1512C22.4329 96.1992 22.0777 96.2304 21.6505 96.1512C21.2233 96.072 20.9041 95.9112 20.9305 95.8752C20.9569 95.8392 21.2833 95.9016 21.6937 95.9736C22.1041 96.0456 22.4329 96.1008 22.4329 96.1512Z" fill="#263238" />
        <path d="M21.6001 99.2904C21.5713 99.3288 21.3097 99.1752 21.0505 98.9136C20.7913 98.652 20.6401 98.4 20.6713 98.3616C20.7025 98.3232 20.9113 98.5344 21.1729 98.7888C21.4345 99.0432 21.6265 99.252 21.6001 99.2904Z" fill="#263238" />
        <path d="M17.9137 88.08C17.3406 88.4282 16.8126 88.8457 16.3417 89.3232C15.2494 90.5204 14.5639 92.0326 14.3833 93.6432C14.3019 94.5284 14.3415 95.4206 14.5009 96.2952C14.6294 97.0129 14.7953 97.7235 14.9977 98.424C15.1705 99.0216 15.3289 99.5016 15.4345 99.8352C15.4983 100.005 15.5489 100.18 15.5857 100.358C15.4978 100.199 15.4254 100.032 15.3697 99.8592C15.2425 99.5328 15.0649 99.0576 14.8777 98.46C14.6542 97.7598 14.4747 97.0464 14.3401 96.324C14.166 95.4351 14.1207 94.5257 14.2057 93.624C14.3855 91.9734 15.1041 90.4282 16.2505 89.2272C16.5986 88.8738 16.9925 88.5687 17.4217 88.32C17.5373 88.2495 17.6576 88.1869 17.7817 88.1328C17.8231 88.1093 17.8675 88.0915 17.9137 88.08Z" fill="#263238" />
        <path d="M20.3592 100.488C20.3184 100.466 20.76 99.7872 21.1632 98.568C21.703 96.9767 21.8672 95.2821 21.6432 93.6168C21.5223 92.6982 21.265 91.8027 20.88 90.96C20.558 90.2825 20.1175 89.668 19.5792 89.1456C19.1986 88.8115 18.7677 88.5393 18.3024 88.3392C17.9712 88.2024 17.772 88.1688 17.7744 88.1544C17.8229 88.1469 17.8723 88.1469 17.9208 88.1544C18.0588 88.1791 18.1944 88.2153 18.3264 88.2624C18.8135 88.441 19.2653 88.7042 19.6608 89.04C20.2283 89.5604 20.6924 90.1833 21.0288 90.876C21.4291 91.7261 21.6962 92.6327 21.8208 93.564C22.0503 95.2558 21.865 96.9781 21.2808 98.5824C21.18 98.892 21.0408 99.156 20.952 99.396C20.8632 99.636 20.7408 99.828 20.6544 99.9864C20.5689 100.161 20.4702 100.328 20.3592 100.488Z" fill="#263238" />
        <path d="M13.4137 100.063H23.2969L23.3569 102.041H13.4137V100.063Z" fill="#525252" />
        <path d="M14.2537 101.052L14.8201 107.09H22.0465L22.6273 101.119L14.2537 101.052Z" fill="#525252" />
        <path d="M23.3568 102.065C23.3568 102.115 21.132 102.154 18.3864 102.154C15.6408 102.154 13.416 102.115 13.416 102.065C13.416 102.014 15.6408 101.976 18.3864 101.976C21.132 101.976 23.3568 102.014 23.3568 102.065Z" fill="#263238" />
        <path d="M22.3536 103.903C22.3022 104.039 22.231 104.167 22.1424 104.282C21.9195 104.611 21.662 104.914 21.3744 105.187L21.3288 105.23L21.2856 105.182C20.6919 104.56 20.0428 103.993 19.3464 103.488H19.4568L18.5976 104.242L17.5824 105.12L17.5272 105.17L17.4696 105.122L15.8208 103.735L15.9168 103.723C15.576 104.141 15.288 104.489 15.0624 104.767C14.964 104.901 14.8513 105.023 14.7264 105.132C14.8055 104.986 14.8979 104.848 15.0024 104.719L15.8088 103.642L15.852 103.586L15.9072 103.63L17.5872 104.988H17.4768L18.4872 104.1L19.3488 103.349L19.4016 103.303L19.4592 103.344C20.1574 103.86 20.8007 104.446 21.3792 105.094H21.288C21.6755 104.727 22.0319 104.329 22.3536 103.903Z" fill="#263238" />
        <path d="M141.108 31.6248H36.4872C34.5559 31.6248 32.9904 33.1903 32.9904 35.1216V101.938C32.9904 103.869 34.5559 105.434 36.4872 105.434H141.108C143.039 105.434 144.605 103.869 144.605 101.938V35.1216C144.605 33.1903 143.039 31.6248 141.108 31.6248Z" fill="#455A64" />
        <path d="M29.3376 100.666H150.262V102.852C150.262 103.985 149.812 105.072 149.01 105.873C148.209 106.674 147.123 107.124 145.99 107.124H33.6C32.467 107.124 31.3804 106.674 30.5792 105.873C29.7781 105.072 29.328 103.985 29.328 102.852V100.666H29.3376Z" fill="#455A64" />
        <path d="M77.796 99.9744L79.296 102.362H100.411L101.803 99.9744H77.796Z" fill="#263238" />
        <path d="M143.645 99.9743C143.645 100.015 118.872 100.046 88.3224 100.046C57.7728 100.046 32.9904 100.015 32.9904 99.9743C32.9904 99.9335 57.7584 99.9023 88.3224 99.9023C118.886 99.9023 143.645 99.9335 143.645 99.9743Z" fill="#263238" />
        <path d="M140.186 35.8679H36.9721C36.5386 35.8679 36.1873 36.2193 36.1873 36.6527V97.2383C36.1873 97.6718 36.5386 98.0231 36.9721 98.0231H140.186C140.62 98.0231 140.971 97.6718 140.971 97.2383V36.6527C140.971 36.2193 140.62 35.8679 140.186 35.8679Z" fill="#EBEBEB" />
        <path d="M140.858 98.1144H36.0745L36.1873 40.5144H140.858V98.1144Z" fill="white" />
        <path d="M44.7816 38.2703C44.783 38.4363 44.7351 38.5989 44.644 38.7376C44.5528 38.8763 44.4225 38.9848 44.2696 39.0493C44.1167 39.1138 43.948 39.1314 43.7851 39.0999C43.6221 39.0684 43.4722 38.9892 43.3543 38.8724C43.2365 38.7555 43.156 38.6063 43.1231 38.4436C43.0902 38.2809 43.1063 38.1122 43.1695 37.9587C43.2327 37.8052 43.34 37.674 43.4779 37.5816C43.6158 37.4893 43.778 37.44 43.944 37.4399C44.1651 37.4393 44.3774 37.5264 44.5345 37.682C44.6915 37.8377 44.7803 38.0493 44.7816 38.2703Z" fill="#263238" />
        <path d="M39.7105 38.2704C39.7119 38.4366 39.6638 38.5996 39.5723 38.7384C39.4808 38.8772 39.3501 38.9857 39.1967 39.05C39.0434 39.1143 38.8744 39.1315 38.7112 39.0994C38.5481 39.0673 38.3982 38.9874 38.2806 38.8698C38.163 38.7522 38.0831 38.6023 38.051 38.4392C38.0189 38.276 38.0361 38.107 38.1004 37.9537C38.1647 37.8004 38.2732 37.6696 38.412 37.5781C38.5509 37.4866 38.7138 37.4385 38.88 37.44C39.0999 37.4412 39.3104 37.5291 39.4658 37.6846C39.6213 37.84 39.7092 38.0505 39.7105 38.2704Z" fill="#263238" />
        <path d="M42.144 38.2703C42.144 38.436 42.0948 38.5979 42.0028 38.7357C41.9108 38.8734 41.7799 38.9808 41.6269 39.0442C41.4738 39.1076 41.3054 39.1242 41.1429 39.0918C40.9805 39.0595 40.8312 38.9798 40.7141 38.8626C40.5969 38.7455 40.5172 38.5962 40.4848 38.4338C40.4525 38.2713 40.4691 38.1029 40.5325 37.9498C40.5959 37.7968 40.7033 37.6659 40.841 37.5739C40.9787 37.4819 41.1407 37.4327 41.3064 37.4327C41.4164 37.4324 41.5255 37.4539 41.6273 37.4959C41.729 37.5378 41.8215 37.5995 41.8993 37.6774C41.9772 37.7552 42.0389 37.8477 42.0808 37.9494C42.1228 38.0512 42.1443 38.1603 42.144 38.2703Z" fill="#263238" />
        <path d="M140.971 92.5511H36.0745V98.1143H140.971V92.5511Z" fill="#263238" />
        <path d="M40.0392 95.9759V96.1535H39.204V96.0143L39.6528 95.5871C39.7632 95.4815 39.7824 95.4143 39.7824 95.3471C39.7824 95.2439 39.7104 95.1839 39.5712 95.1839C39.5211 95.1812 39.471 95.1904 39.4251 95.2109C39.3792 95.2313 39.3388 95.2624 39.3072 95.3015L39.1584 95.1887C39.2111 95.1262 39.2775 95.0768 39.3524 95.0443C39.4274 95.0118 39.5089 94.9972 39.5904 95.0015C39.8304 95.0015 39.996 95.1239 39.996 95.3255C39.9945 95.3958 39.9765 95.4647 39.9436 95.5268C39.9107 95.5889 39.8637 95.6424 39.8064 95.6831L39.504 95.9711L40.0392 95.9759Z" fill="white" />
        <path d="M40.152 95.4143C40.152 95.3877 40.1599 95.3616 40.1748 95.3394C40.1897 95.3173 40.2108 95.3001 40.2355 95.29C40.2602 95.2799 40.2873 95.2773 40.3135 95.2827C40.3396 95.2881 40.3635 95.3012 40.3822 95.3202C40.4009 95.3392 40.4135 95.3634 40.4185 95.3896C40.4234 95.4159 40.4204 95.4429 40.4098 95.4675C40.3993 95.492 40.3817 95.5128 40.3593 95.5273C40.3369 95.5417 40.3106 95.5492 40.284 95.5487C40.2663 95.5491 40.2488 95.5458 40.2325 95.5392C40.2162 95.5325 40.2014 95.5226 40.189 95.51C40.1766 95.4974 40.167 95.4824 40.1606 95.466C40.1542 95.4495 40.1513 95.432 40.152 95.4143ZM40.152 96.0311C40.1494 96.0122 40.1509 95.9928 40.1565 95.9745C40.162 95.9561 40.1714 95.9392 40.184 95.9248C40.1966 95.9103 40.2122 95.8988 40.2296 95.8908C40.2471 95.8829 40.266 95.8788 40.2852 95.8788C40.3043 95.8788 40.3233 95.8829 40.3407 95.8908C40.3582 95.8988 40.3737 95.9103 40.3863 95.9248C40.3989 95.9392 40.4083 95.9561 40.4139 95.9745C40.4194 95.9928 40.4209 96.0122 40.4184 96.0311C40.4209 96.0501 40.4194 96.0695 40.4139 96.0878C40.4083 96.1062 40.3989 96.1231 40.3863 96.1375C40.3737 96.152 40.3582 96.1635 40.3407 96.1715C40.3233 96.1794 40.3043 96.1835 40.2852 96.1835C40.266 96.1835 40.2471 96.1794 40.2296 96.1715C40.2122 96.1635 40.1966 96.152 40.184 96.1375C40.1714 96.1231 40.162 96.1062 40.1565 96.0878C40.1509 96.0695 40.1494 96.0501 40.152 96.0311Z" fill="white" />
        <path d="M40.944 95.0207V96.1535H40.7352V95.1935H40.4952V95.0159L40.944 95.0207Z" fill="white" />
        <path d="M42.18 95.8968H41.9784V96.1536H41.7744V95.8968H41.1528V95.76L41.712 95.04H41.9376L41.4096 95.7384H41.7816V95.5104H41.9784V95.7384H42.18V95.8968Z" fill="white" />
        <path d="M130.008 95.4432H44.0304V95.8344H130.008V95.4432Z" fill="white" />
        <path d="M70.8336 95.0231H43.9656V96.0695H70.8336V95.0231Z" fill="#0031C6" />
        <path d="M71.7024 95.64C71.7024 95.8987 71.6257 96.1516 71.482 96.3667C71.3383 96.5818 71.134 96.7494 70.895 96.8484C70.656 96.9474 70.393 96.9733 70.1393 96.9228C69.8855 96.8724 69.6525 96.7478 69.4695 96.5649C69.2866 96.3819 69.162 96.1489 69.1116 95.8951C69.0611 95.6414 69.087 95.3784 69.186 95.1394C69.285 94.9004 69.4526 94.6961 69.6677 94.5524C69.8828 94.4087 70.1357 94.332 70.3944 94.332C70.7413 94.332 71.074 94.4698 71.3193 94.7151C71.5646 94.9604 71.7024 95.2931 71.7024 95.64Z" fill="#0031C6" />
        <path d="M132.173 95.628C132.172 95.6802 132.161 95.7318 132.14 95.7795C132.118 95.8271 132.087 95.8698 132.048 95.9048C132.009 95.9398 131.964 95.9663 131.914 95.9827C131.864 95.9991 131.812 96.005 131.76 96C131.45 96 131.28 95.8008 131.28 95.436C131.27 95.3585 131.278 95.2799 131.302 95.2056C131.326 95.1313 131.366 95.0631 131.419 95.0058C131.472 94.9484 131.537 94.9033 131.609 94.8736C131.681 94.8439 131.759 94.8302 131.837 94.8336C131.941 94.831 132.044 94.8567 132.134 94.908L132.055 95.0664C131.991 95.0269 131.917 95.0077 131.842 95.0112C131.628 95.0112 131.494 95.1432 131.494 95.4C131.532 95.3595 131.58 95.328 131.632 95.3077C131.684 95.2873 131.74 95.2787 131.796 95.2824C131.844 95.2791 131.892 95.2856 131.937 95.3014C131.982 95.3172 132.023 95.342 132.059 95.3743C132.094 95.4067 132.122 95.4458 132.142 95.4894C132.161 95.533 132.172 95.5802 132.173 95.628ZM131.969 95.628C131.969 95.5104 131.88 95.436 131.743 95.436C131.714 95.4312 131.685 95.4326 131.657 95.44C131.628 95.4475 131.602 95.4608 131.579 95.4792C131.557 95.4976 131.538 95.5205 131.525 95.5466C131.512 95.5727 131.504 95.6012 131.503 95.6304C131.503 95.736 131.587 95.82 131.743 95.82C131.77 95.8244 131.798 95.8231 131.824 95.8161C131.851 95.809 131.876 95.7965 131.897 95.7793C131.918 95.7621 131.936 95.7405 131.948 95.7161C131.96 95.6917 131.967 95.6649 131.969 95.6376V95.628Z" fill="white" />
        <path d="M132.276 95.2392C132.273 95.2202 132.275 95.2009 132.28 95.1825C132.286 95.1642 132.295 95.1472 132.308 95.1328C132.321 95.1184 132.336 95.1068 132.354 95.0989C132.371 95.091 132.39 95.0869 132.409 95.0869C132.428 95.0869 132.447 95.091 132.465 95.0989C132.482 95.1068 132.498 95.1184 132.51 95.1328C132.523 95.1472 132.532 95.1642 132.538 95.1825C132.543 95.2009 132.545 95.2202 132.542 95.2392C132.545 95.2582 132.543 95.2775 132.538 95.2958C132.532 95.3142 132.523 95.3311 132.51 95.3456C132.498 95.36 132.482 95.3715 132.465 95.3795C132.447 95.3874 132.428 95.3915 132.409 95.3915C132.39 95.3915 132.371 95.3874 132.354 95.3795C132.336 95.3715 132.321 95.36 132.308 95.3456C132.295 95.3311 132.286 95.3142 132.28 95.2958C132.275 95.2775 132.273 95.2582 132.276 95.2392ZM132.276 95.856C132.273 95.837 132.275 95.8177 132.28 95.7993C132.286 95.781 132.295 95.764 132.308 95.7496C132.321 95.7352 132.336 95.7236 132.354 95.7157C132.371 95.7077 132.39 95.7036 132.409 95.7036C132.428 95.7036 132.447 95.7077 132.465 95.7157C132.482 95.7236 132.498 95.7352 132.51 95.7496C132.523 95.764 132.532 95.781 132.538 95.7993C132.543 95.8177 132.545 95.837 132.542 95.856C132.545 95.875 132.543 95.8943 132.538 95.9126C132.532 95.931 132.523 95.9479 132.51 95.9624C132.498 95.9768 132.482 95.9884 132.465 95.9963C132.447 96.0042 132.428 96.0083 132.409 96.0083C132.39 96.0083 132.371 96.0042 132.354 95.9963C132.336 95.9884 132.321 95.9768 132.308 95.9624C132.295 95.9479 132.286 95.931 132.28 95.9126C132.275 95.8943 132.273 95.875 132.276 95.856Z" fill="white" />
        <path d="M132.677 95.4119C132.677 95.0399 132.881 94.8287 133.157 94.8287C133.433 94.8287 133.637 95.0399 133.637 95.4119C133.637 95.7839 133.433 95.9951 133.157 95.9951C132.881 95.9951 132.677 95.7839 132.677 95.4119ZM133.411 95.4119C133.411 95.1383 133.306 95.0135 133.15 95.0135C132.994 95.0135 132.888 95.1383 132.888 95.4119C132.888 95.6855 132.996 95.8127 133.15 95.8127C133.303 95.8127 133.411 95.6855 133.411 95.4119Z" fill="white" />
        <path d="M133.764 95.4119C133.764 95.0399 133.968 94.8287 134.244 94.8287C134.52 94.8287 134.724 95.0399 134.724 95.4119C134.724 95.7839 134.52 95.9951 134.244 95.9951C133.968 95.9951 133.764 95.7839 133.764 95.4119ZM134.501 95.4119C134.501 95.1383 134.393 95.0135 134.237 95.0135C134.081 95.0135 133.978 95.1383 133.978 95.4119C133.978 95.6855 134.083 95.8127 134.237 95.8127C134.39 95.8127 134.501 95.6855 134.501 95.4119Z" fill="white" />
        <path d="M136.543 95.3424H136.15V94.212H137.28V94.6032H136.543V95.3424Z" fill="white" />
        <path d="M137.28 96.8159H136.15V95.6879H136.541V96.4247H137.28V96.8159Z" fill="white" />
        <path d="M139.08 96.8159H137.952V96.4247H138.686V95.6855H139.08V96.8159Z" fill="white" />
        <path d="M139.08 95.34H138.689V94.6032H137.95V94.212H139.08V95.34Z" fill="white" />
        <path d="M105.31 58.8215C106.396 59.4394 107.349 60.2666 108.114 61.2553C108.878 62.2441 109.439 63.3746 109.764 64.5815C110.923 68.7287 114.468 79.5287 114.468 79.5287C114.468 79.5287 116.494 81.9119 116.71 83.6759C116.926 85.4399 116.494 89.7095 115.841 90.5063C115.652 90.7375 115.409 90.919 115.134 91.0348C114.858 91.1507 114.559 91.1975 114.262 91.1711L105.734 90.3623L102.374 67.8791L105.31 58.8215Z" fill="#0031C6" />
        <path d="M77.1144 58.4304C77.1144 58.4304 71.016 60.3504 69.4968 62.0064L74.4888 85.2288L74.4 92.5584H103.315C103.315 92.196 103.574 68.2272 103.574 68.2272L105.31 58.8216L95.04 57.0144L93.0144 55.4208L81.5832 56.0016L79.8456 57.7368L77.1144 58.4304Z" fill="#0031C6" />
        <g opacity="0.3">
            <path d="M79.44 78.5784C79.3512 78.3816 79.2216 78.168 79.0104 78.1248C78.6624 78.0528 78.4296 78.4632 78.312 78.7992C77.39 81.4318 76.1126 83.9261 74.5152 86.2128L74.4408 89.7792C76.1208 88.3608 77.7864 86.8416 78.8616 84.9192C79.9368 82.9968 80.3376 80.5848 79.44 78.5784Z" fill="black" />
        </g>
        <path d="M69.4968 62.0063C69.4968 62.0063 67.488 64.7448 66.6552 66.5328C65.8224 68.3208 58.908 83.3328 58.4952 84.8856C58.0824 86.4384 57.0072 91.32 60.1632 92.4528H66.66L73.1784 79.2696L73.512 63.9696L69.4968 62.0063Z" fill="#0031C6" />
        <path d="M67.0704 82.9296C67.0704 82.9296 66.9264 82.8024 66.6264 82.632C66.1982 82.4023 65.739 82.2358 65.2632 82.1376C64.936 82.0659 64.6039 82.0194 64.2696 81.9984C63.8845 81.9694 63.4972 81.9969 63.12 82.08C62.2662 82.2992 61.502 82.7791 60.9336 83.4528C60.3556 84.1189 59.9327 84.905 59.6952 85.7544C59.4992 86.4486 59.369 87.1597 59.3064 87.8784C59.244 88.4928 59.2224 88.9944 59.2008 89.3376C59.2008 89.5008 59.1816 89.6328 59.1768 89.736C59.1769 89.7831 59.1705 89.8299 59.1576 89.8752C59.1545 89.8288 59.1545 89.7823 59.1576 89.736C59.1576 89.6304 59.1576 89.496 59.1576 89.3376C59.1576 88.9896 59.172 88.4904 59.2224 87.8712C59.2731 87.1408 59.3961 86.4173 59.5896 85.7112C59.8254 84.8426 60.2545 84.0386 60.8448 83.3592C61.431 82.6667 62.2203 82.1763 63.1008 81.9576C63.4857 81.8774 63.8805 81.8556 64.272 81.8928C64.6108 81.9177 64.9471 81.9698 65.2776 82.0488C65.7588 82.1558 66.2203 82.3371 66.6456 82.5864C66.7601 82.6572 66.8685 82.7374 66.9696 82.8264C67.0067 82.8571 67.0405 82.8917 67.0704 82.9296Z" fill="#263238" />
        <path d="M63.9912 80.304C64.0622 80.2833 64.1357 80.272 64.2096 80.2704C64.4101 80.2548 64.6115 80.2548 64.812 80.2704C65.1106 80.2879 65.4069 80.3321 65.6976 80.4024C66.4128 80.5753 67.0839 80.8957 67.668 81.3432C67.906 81.5243 68.1269 81.7267 68.328 81.948C68.4644 82.098 68.5887 82.2585 68.7 82.428C68.7453 82.4867 68.7825 82.5513 68.8104 82.62C68.7912 82.6344 68.6136 82.38 68.2632 82.0152C68.0562 81.8077 67.834 81.616 67.5984 81.4416C67.3083 81.2304 66.9999 81.0456 66.6768 80.8896C66.3519 80.738 66.0147 80.6144 65.6688 80.52C65.3851 80.4469 65.0963 80.3955 64.8048 80.3664C64.3056 80.3016 63.9912 80.328 63.9912 80.304Z" fill="#263238" />
        <path d="M69.8616 79.5816C69.7611 79.5857 69.6605 79.5784 69.5616 79.56C69.3696 79.536 69.0936 79.5072 68.748 79.4808C66.9531 79.347 65.1493 79.563 63.4368 80.1168C63.108 80.2224 62.844 80.316 62.664 80.3856C62.5722 80.4262 62.4765 80.4576 62.3784 80.4792C62.461 80.4218 62.5505 80.375 62.6448 80.34C62.82 80.256 63.0816 80.1504 63.408 80.0328C65.1218 79.4259 66.9491 79.2079 68.7576 79.3944C69.1008 79.4304 69.3792 79.4712 69.5688 79.512C69.6684 79.5258 69.7665 79.5491 69.8616 79.5816Z" fill="#263238" />
        <path d="M88.3633 66.7536C88.3369 66.7307 88.3143 66.704 88.2961 66.6743L88.1185 66.4343L87.4657 65.5319C86.9065 64.7399 86.1241 63.636 85.2049 62.34L85.3057 62.3256C84.9553 63.3528 84.5689 64.4856 84.1633 65.6856L84.1369 65.7599L84.0697 65.7168L83.9353 65.6303C83.4123 65.2956 82.9369 64.892 82.5217 64.4303C82.1379 64.0006 81.7993 63.5325 81.5113 63.0336C81.0318 62.1892 80.6585 61.2887 80.4001 60.3528C80.2265 59.7205 80.0863 59.0797 79.9801 58.4328C79.9417 58.2168 79.9129 58.0415 79.8889 57.9095C79.8821 57.8648 79.8716 57.8206 79.8577 57.7776C79.8577 57.7488 79.8409 57.7344 79.8433 57.732C79.8457 57.7296 79.9417 57.972 80.0281 58.4256C80.1145 58.8792 80.2513 59.5319 80.4865 60.3215C80.7522 61.2489 81.1302 62.1402 81.6121 62.9759C81.8993 63.4656 82.2346 63.9254 82.6129 64.3487C83.0209 64.7993 83.4874 65.1932 84.0001 65.5199L84.1321 65.6063L84.0409 65.64C84.4513 64.4399 84.8401 63.3144 85.1953 62.28L85.2313 62.1744L85.2961 62.2656C86.1985 63.5736 86.9761 64.6872 87.5209 65.484C87.7825 65.8728 88.0009 66.1824 88.1473 66.408L88.3081 66.648C88.3301 66.6811 88.3486 66.7165 88.3633 66.7536Z" fill="#263238" />
        <g opacity="0.3">
            <path d="M95.8872 77.8392C95.6284 80.5473 96.2153 83.269 97.5672 85.6296C98.9112 87.9672 100.884 90.0528 103.339 91.1712C103.418 88.788 103.303 85.98 103.382 83.5968L95.8872 77.8392Z" fill="black" />
        </g>
        <path d="M95.616 74.7024C95.616 74.7024 94.5648 74.9928 95.352 77.1456C96.1392 79.2984 96.4032 79.1664 96.9288 81.1776C97.4544 83.1888 98.0664 85.0176 98.9832 86.1648C99.9 87.312 103.315 89.6208 103.315 89.6208L106.378 86.7408C106.378 86.7408 105.874 84.5808 105.994 83.1264C106.114 81.672 106.421 78.0864 106.378 77.4648C106.334 76.8432 105.677 75.3648 105.677 75.3648V74.3472L104.102 69.504C104.102 69.504 103.226 69.1104 102.922 70.5096L102.396 69.024C102.396 69.024 101.566 68.892 101.347 70.5984C101.129 72.3048 101.522 74.6664 101.522 74.6664L101.083 77.64L100.428 79.6536L99.8592 79.74C99.8592 79.74 99.0024 79.5 98.5344 77.8944C98.0664 76.2888 96.7968 74.352 95.616 74.7024Z" fill="#FFBE9D" />
        <path d="M105.36 82.32C105.36 82.32 105.36 82.284 105.346 82.212C105.331 82.14 105.331 82.0224 105.324 81.8904C105.307 81.5976 105.286 81.192 105.259 80.6904C105.211 79.6464 105.146 78.192 105.07 76.4952L105.082 76.5312C105.003 76.45 104.904 76.3918 104.795 76.363C104.686 76.3342 104.571 76.3359 104.462 76.368C104.345 76.3965 104.234 76.4481 104.137 76.5198C104.04 76.5915 103.958 76.6819 103.896 76.7856C103.627 77.2152 103.613 77.7768 103.529 78.3168C103.363 79.5432 103.205 80.7168 103.061 81.7752C102.989 82.308 102.912 82.812 102.809 83.28C102.712 83.714 102.584 84.1407 102.427 84.5568C102.293 84.9384 102.173 85.2768 102.098 85.596C102.032 85.8588 101.999 86.129 102 86.4C102.009 86.6332 102.049 86.8642 102.12 87.0864C102.091 87.0326 102.067 86.9764 102.048 86.9184C101.991 86.752 101.959 86.5782 101.952 86.4024C101.941 86.1241 101.967 85.8455 102.031 85.5744C102.115 85.2182 102.22 84.8672 102.346 84.5232C102.494 84.1086 102.614 83.6844 102.706 83.2536C102.804 82.7904 102.878 82.2936 102.946 81.756C103.085 80.6904 103.241 79.524 103.404 78.2952C103.442 78.024 103.471 77.7528 103.519 77.484C103.559 77.2124 103.65 76.9508 103.788 76.7136C103.859 76.5971 103.953 76.496 104.064 76.4161C104.175 76.3361 104.301 76.279 104.434 76.248C104.563 76.2091 104.701 76.2074 104.831 76.2431C104.961 76.2787 105.079 76.3503 105.17 76.4496L105.182 76.4664V76.4856C105.242 78.1824 105.293 79.6368 105.329 80.6832C105.329 81.1896 105.35 81.5952 105.36 81.8832C105.36 82.0152 105.36 82.1232 105.36 82.2048C105.364 82.2431 105.364 82.2817 105.36 82.32Z" fill="#EB996E" />
        <path d="M103.68 76.7999C103.625 76.7146 103.582 76.6226 103.55 76.5263C103.45 76.2706 103.364 76.0094 103.294 75.7439C103.191 75.35 103.118 74.9489 103.075 74.5439C103.046 74.3051 103.041 74.0638 103.061 73.8239C103.083 73.5558 103.174 73.2979 103.325 73.0751C103.459 72.8754 103.657 72.7267 103.886 72.6527L103.932 72.6407L103.956 72.6815C104.4 73.4639 104.786 74.1551 105.055 74.6519L105.37 75.2399C105.413 75.3089 105.447 75.3831 105.47 75.4607C105.417 75.3997 105.37 75.3329 105.331 75.2615L104.986 74.6927C104.698 74.2127 104.297 73.5239 103.85 72.7439L103.92 72.7727C103.719 72.8399 103.546 72.9715 103.428 73.1471C103.29 73.353 103.207 73.5911 103.188 73.8383C103.164 74.0729 103.164 74.3094 103.188 74.5439C103.224 74.9478 103.288 75.3487 103.378 75.7439C103.454 76.0799 103.538 76.3487 103.594 76.5335C103.631 76.6193 103.66 76.7085 103.68 76.7999Z" fill="#EB996E" />
        <path d="M102.946 77.1936C102.924 77.1016 102.915 77.0073 102.917 76.9128C102.917 76.7064 102.898 76.452 102.886 76.152C102.866 75.5088 102.845 74.6208 102.833 73.6392C102.797 72.8 102.81 71.9594 102.871 71.1216C102.901 70.8674 102.956 70.6166 103.034 70.3728C103.058 70.2809 103.096 70.1934 103.147 70.1136C103.059 70.4477 102.996 70.7878 102.958 71.1312C102.898 71.7672 102.958 72.6552 102.958 73.6368C102.958 74.6184 102.977 75.5064 102.974 76.1496C102.974 76.452 102.974 76.7064 102.974 76.9128C102.975 77.0072 102.965 77.1014 102.946 77.1936Z" fill="#EB996E" />
        <path d="M100.356 85.26C100.339 85.2456 100.531 85.02 100.766 84.6096C100.904 84.3702 101.024 84.1207 101.124 83.8632C101.242 83.5465 101.333 83.2206 101.398 82.8888C101.454 82.5557 101.482 82.2186 101.482 81.8808C101.478 81.605 101.454 81.3299 101.41 81.0576C101.33 80.5896 101.23 80.3112 101.251 80.304C101.289 80.3627 101.318 80.4266 101.338 80.4936C101.405 80.6714 101.458 80.8544 101.496 81.0408C101.555 81.3164 101.588 81.5968 101.597 81.8784C101.618 82.5727 101.493 83.2636 101.23 83.9064C101.124 84.1671 100.994 84.4177 100.843 84.6552C100.743 84.8163 100.63 84.9688 100.505 85.1112C100.416 85.212 100.363 85.2648 100.356 85.26Z" fill="#EB996E" />
        <path d="M105.732 83.76L108.389 84.6816C108.389 84.6816 110.928 83.3688 112.678 84.6816C114.427 85.9944 115.946 89.4528 115.466 90.852C115.466 90.852 114.266 92.3448 113.34 92.5632C112.414 92.7816 108.85 91.9152 107.364 91.6032C105.878 91.2912 103.315 89.6256 103.315 89.6256L105.732 83.76Z" fill="#FFBE9D" />
        <path d="M106.058 87.6696C106.04 87.5909 106.03 87.5104 106.03 87.4296C106.03 87.2496 106.008 87.036 105.994 86.7864C105.965 86.244 105.929 85.4952 105.917 84.6648C105.905 83.8344 105.929 83.0832 105.977 82.5408C106.001 82.2696 106.032 82.0608 106.058 81.9C106.064 81.8176 106.083 81.7366 106.114 81.66C106.133 81.66 106.092 81.996 106.066 82.5384C106.039 83.0808 106.03 83.8272 106.042 84.6552C106.054 85.4832 106.07 86.1984 106.08 86.7744C106.08 87.0456 106.08 87.2664 106.08 87.4176C106.087 87.5022 106.079 87.5873 106.058 87.6696Z" fill="#EB996E" />
        <path d="M114.821 84.5712C114.545 84.2852 114.25 84.019 113.938 83.7744C113.169 83.1994 112.248 82.8646 111.289 82.8121C110.331 82.7596 109.379 82.9917 108.552 83.4792C108.217 83.6883 107.896 83.92 107.592 84.1728C107.655 84.0847 107.729 84.0042 107.81 83.9328C108.026 83.7321 108.262 83.5536 108.514 83.4C109.348 82.8801 110.323 82.6304 111.305 82.6849C112.287 82.7395 113.228 83.0956 114 83.7048C114.233 83.8843 114.447 84.0879 114.638 84.312C114.709 84.391 114.77 84.478 114.821 84.5712Z" fill="#263238" />
        <path d="M114.48 82.356C114.137 82.1094 113.765 81.9048 113.374 81.7464C112.411 81.4045 111.365 81.3735 110.383 81.6576C109.843 81.8091 109.324 82.025 108.835 82.3008C108.438 82.5292 108.063 82.7944 107.714 83.0928C107.417 83.3472 107.189 83.5728 107.033 83.724C106.956 83.8114 106.872 83.8918 106.781 83.964C106.843 83.8671 106.916 83.777 106.997 83.6952C107.204 83.4613 107.425 83.2394 107.657 83.0304C108.002 82.7189 108.377 82.4431 108.778 82.2072C109.271 81.919 109.799 81.6955 110.35 81.5424C111.355 81.2486 112.43 81.2933 113.407 81.6696C113.699 81.7862 113.975 81.9412 114.226 82.1304C114.314 82.1952 114.374 82.2576 114.42 82.296C114.466 82.3344 114.48 82.3536 114.48 82.356Z" fill="#263238" />
        <path d="M114.502 80.436C114.502 80.46 114.022 80.3184 113.258 80.2152C112.807 80.1547 112.353 80.1258 111.898 80.1288C111.34 80.1349 110.784 80.1847 110.234 80.2776C109.686 80.3784 109.146 80.5212 108.619 80.7048C108.19 80.8572 107.772 81.0401 107.369 81.252C106.68 81.612 106.291 81.9048 106.277 81.8832C106.358 81.8041 106.448 81.7333 106.543 81.672C106.648 81.5897 106.758 81.5144 106.872 81.4464C107.004 81.3624 107.153 81.264 107.326 81.1728C107.729 80.9497 108.149 80.7571 108.581 80.5968C109.111 80.4033 109.657 80.2555 110.213 80.1552C110.768 80.0613 111.33 80.0139 111.893 80.0136C112.353 80.0159 112.813 80.0536 113.268 80.1264C113.462 80.1504 113.635 80.196 113.786 80.2272C113.918 80.2538 114.048 80.2874 114.175 80.328C114.287 80.3545 114.396 80.3906 114.502 80.436Z" fill="#263238" />
        <path d="M94.1424 56.9352C94.2419 57.1586 94.3035 57.3971 94.3248 57.6408C94.3964 58.3291 94.3624 59.0243 94.224 59.7024C94.1398 60.1891 94.0252 60.67 93.8808 61.1424C93.6916 61.692 93.4588 62.2257 93.1848 62.7384C92.6112 63.8424 91.8912 65.0448 91.056 66.3384L90.96 66.4896V66.3096C90.96 65.46 90.96 64.5696 90.96 63.6456L91.0536 63.6912L88.8 65.4888L88.8192 65.46C88.2846 67.2119 87.956 69.02 87.84 70.848C87.6192 73.7688 87.7968 76.5624 87.9336 79.0968C88.0704 81.6312 88.1304 83.9184 88.2096 85.8384C88.2888 87.7584 88.3536 89.3088 88.4112 90.3816C88.4448 90.9144 88.4688 91.3272 88.4856 91.6152C88.4856 91.752 88.5024 91.8552 88.5072 91.9368C88.512 92.0184 88.5072 92.0472 88.5072 92.0472C88.5072 92.0472 88.5072 92.0112 88.4904 91.9392C88.4736 91.8672 88.4712 91.7544 88.4568 91.6176C88.4304 91.3368 88.3968 90.9216 88.3608 90.384C88.2888 89.3136 88.2048 87.7608 88.1208 85.8408C88.0368 83.9208 87.9336 81.6384 87.8184 79.1016C87.7032 76.5648 87.4944 73.7688 87.7152 70.8384C87.8365 68.9996 88.1741 67.1814 88.7208 65.4216V65.4048H88.7352L90.9816 63.6024L91.0752 63.5256V63.6456C91.0752 64.5696 91.0752 65.46 91.0752 66.3096L90.9768 66.2784C92.6256 63.7224 93.9672 61.5 94.1736 59.7024C94.3161 59.0307 94.3598 58.3419 94.3032 57.6576C94.2836 57.4778 94.2507 57.2997 94.2048 57.1248C94.1568 56.9952 94.1424 56.9352 94.1424 56.9352Z" fill="#263238" />
        <path d="M89.8368 87.8928H89.76C89.5852 87.904 89.4217 87.9827 89.3039 88.1124C89.1862 88.242 89.1235 88.4124 89.1291 88.5874C89.1347 88.7624 89.2082 88.9284 89.334 89.0502C89.4598 89.1721 89.6281 89.2402 89.8032 89.2402C89.9783 89.2402 90.1466 89.1721 90.2724 89.0502C90.3982 88.9284 90.4716 88.7624 90.4772 88.5874C90.4829 88.4124 90.4202 88.242 90.3024 88.1124C90.1847 87.9827 90.0211 87.904 89.8464 87.8928H89.8368Z" fill="white" />
        <path d="M89.8368 78.6432H89.76C89.5859 78.6544 89.423 78.7329 89.3057 78.8621C89.1884 78.9913 89.126 79.161 89.1316 79.3354C89.1372 79.5098 89.2104 79.6752 89.3358 79.7966C89.4611 79.9179 89.6287 79.9858 89.8032 79.9858C89.9777 79.9858 90.1454 79.9179 90.2707 79.7966C90.396 79.6752 90.4693 79.5098 90.4749 79.3354C90.4805 79.161 90.4181 78.9913 90.3008 78.8621C90.1835 78.7329 90.0205 78.6544 89.8464 78.6432H89.8368Z" fill="white" />
        <path d="M89.7601 70.368C89.9392 70.3798 90.1158 70.3199 90.2508 70.2016C90.3858 70.0832 90.4683 69.916 90.4801 69.7368C90.4918 69.5577 90.4319 69.3811 90.3136 69.2461C90.1952 69.1111 90.028 69.0286 89.8489 69.0168H89.7601C89.5806 69.0168 89.4084 69.0882 89.2815 69.2151C89.1546 69.342 89.0833 69.5141 89.0833 69.6936C89.0833 69.8731 89.1546 70.0453 89.2815 70.1722C89.4084 70.2991 89.5806 70.3704 89.7601 70.3704V70.368Z" fill="white" />
        <path d="M79.3848 46.0968C78.5448 45.1632 77.7048 44.2224 77.0832 43.128C76.4616 42.0336 76.104 40.7544 76.3056 39.528C76.4256 38.808 76.7328 38.112 76.7856 37.368C76.8528 36.36 76.4304 35.3064 76.7856 34.3632C77.3424 32.8848 79.332 32.6568 80.5368 31.6368C81.4752 30.8424 81.9312 29.5536 82.9632 28.8864C83.8656 28.3008 85.0248 28.3152 86.0832 28.464C87.1416 28.6128 88.2168 28.884 89.2824 28.74C90.0408 28.6392 90.756 28.332 91.4976 28.1472C92.2392 27.9624 93.072 27.9072 93.732 28.3008C94.392 28.6944 94.7664 29.6232 94.332 30.2544C95.5656 29.6856 97.1328 30.648 97.4712 31.9632C97.8096 33.2784 97.1328 34.7016 96.0864 35.5632C95.04 36.4248 93.6864 36.8352 92.3544 37.0872C88.5768 37.8072 84.4752 37.3968 81.2184 35.352" fill="#263238" />
        <path d="M92.6736 58.8C92.4888 57.36 92.3376 56.1768 92.328 56.028C92.328 56.028 97.1088 54.9528 96.8448 50.1192C96.7176 47.7816 96.0648 42.9912 95.4216 38.664C95.0911 36.4208 93.9273 34.3845 92.1623 32.9611C90.3974 31.5377 88.1608 30.8318 85.8984 30.984L85.4184 31.0128C80.4144 31.644 78.1512 36.2472 78.9192 41.2344L81.6216 57.9552C81.6216 57.9552 82.7736 61.6536 85.2384 62.2944L88.3584 66.7392L88.872 64.8192L91.1904 62.7984C91.6347 62.2759 92.0187 61.7051 92.3352 61.0968C92.6892 60.3866 92.8077 59.5821 92.6736 58.8Z" fill="#FFBE9D" />
        <path d="M92.3304 55.9607C92.3304 55.9607 89.2944 56.4119 85.9128 54.5903C85.9128 54.5903 87.636 57.9671 92.4264 57.2111L92.3304 55.9607Z" fill="#EB996E" />
        <path d="M93.8688 42.8208C93.8823 43.0006 93.8251 43.1786 93.7096 43.3171C93.594 43.4555 93.429 43.5435 93.2496 43.5624C93.1623 43.5752 93.0733 43.5703 92.9879 43.5481C92.9024 43.5259 92.8223 43.4868 92.7523 43.4331C92.6823 43.3794 92.6237 43.3122 92.5801 43.2354C92.5365 43.1587 92.5087 43.074 92.4984 42.9864C92.4824 42.8051 92.5388 42.6248 92.6552 42.4849C92.7717 42.3451 92.9388 42.257 93.12 42.24C93.2075 42.2275 93.2966 42.2328 93.382 42.2555C93.4675 42.2781 93.5475 42.3177 93.6173 42.3719C93.6872 42.4261 93.7454 42.4937 93.7886 42.5708C93.8318 42.6479 93.8591 42.7329 93.8688 42.8208Z" fill="#263238" />
        <path d="M94.5433 41.1071C94.4641 41.2031 93.9145 40.8503 93.1729 40.9031C92.4313 40.9559 91.9201 41.3615 91.8241 41.2799C91.7833 41.2439 91.8601 41.0759 92.0857 40.8863C92.3913 40.642 92.7654 40.4986 93.1561 40.4759C93.5426 40.4479 93.9279 40.5446 94.2553 40.7519C94.4953 40.9055 94.5817 41.0639 94.5433 41.1071Z" fill="#263238" />
        <path d="M86.856 43.3224C86.8701 43.5021 86.8131 43.6802 86.6973 43.8184C86.5816 43.9566 86.4162 44.0439 86.2368 44.0616C86.1496 44.0747 86.0607 44.0702 85.9753 44.0483C85.8898 44.0264 85.8097 43.9875 85.7396 43.934C85.6696 43.8805 85.6109 43.8134 85.5673 43.7368C85.5237 43.6602 85.4959 43.5755 85.4856 43.488C85.4721 43.3085 85.5289 43.1308 85.644 42.9924C85.7591 42.854 85.9235 42.7658 86.1024 42.7464C86.1899 42.7336 86.279 42.7384 86.3646 42.7606C86.4501 42.7827 86.5304 42.8218 86.6006 42.8755C86.6709 42.9292 86.7296 42.9964 86.7735 43.0731C86.8173 43.1499 86.8454 43.2346 86.856 43.3224Z" fill="#263238" />
        <path d="M87.2568 41.7335C87.1752 41.8295 86.628 41.4767 85.8864 41.5295C85.1448 41.5823 84.624 41.9879 84.5376 41.9015C84.4944 41.8655 84.5712 41.6975 84.7968 41.5079C85.1036 41.2639 85.4783 41.1206 85.8696 41.0975C86.2553 41.0698 86.6398 41.1666 86.9664 41.3735C87.2064 41.5319 87.2952 41.6903 87.2568 41.7335Z" fill="#263238" />
        <path d="M90.3168 47.0592C90.3168 47.016 90.768 46.9056 91.5168 46.7592C91.704 46.728 91.8816 46.6776 91.9056 46.548C91.908 46.3507 91.8502 46.1573 91.74 45.9936L91.0824 44.5872C90.168 42.5856 89.4912 40.932 89.5728 40.896C89.6544 40.86 90.4608 42.4536 91.3776 44.4576L92.0112 45.8736C92.1455 46.0942 92.1981 46.3549 92.16 46.6104C92.1368 46.6788 92.0984 46.7412 92.0477 46.7927C91.997 46.8442 91.9353 46.8836 91.8672 46.908C91.7641 46.9438 91.6568 46.9664 91.548 46.9752C90.7896 47.0664 90.324 47.1 90.3168 47.0592Z" fill="#263238" />
        <path d="M87.252 38.8104C87.192 39.0192 86.4456 38.9712 85.572 39.1344C84.6984 39.2976 84.0192 39.5832 83.892 39.4104C83.8344 39.3264 83.9448 39.1296 84.216 38.9136C84.5793 38.65 84.9975 38.472 85.4394 38.3931C85.8812 38.3141 86.3352 38.3362 86.7672 38.4576C87.1056 38.5656 87.2784 38.7144 87.252 38.8104Z" fill="#263238" />
        <path d="M94.1257 38.9759C94.0081 39.1535 93.4849 39.0143 92.8681 39.0455C92.2513 39.0767 91.7401 39.2351 91.6081 39.0671C91.5505 38.9855 91.6225 38.8103 91.8481 38.6351C92.1412 38.4242 92.4902 38.3049 92.8512 38.292C93.2121 38.2792 93.5687 38.3736 93.8761 38.5631C94.0969 38.7215 94.1785 38.8799 94.1257 38.9759Z" fill="#263238" />
        <path d="M79.5648 44.7983C79.4808 44.7695 76.1808 44.0399 76.5072 47.3351C76.8336 50.6303 80.4 49.5551 80.4 49.4615C80.4 49.3679 79.5648 44.7983 79.5648 44.7983Z" fill="#FFBE9D" />
        <path d="M78.9408 48.3792C78.924 48.3792 78.888 48.4248 78.7944 48.4776C78.6643 48.5502 78.511 48.5692 78.3672 48.5304C78.0048 48.4368 77.6472 47.9136 77.5824 47.3304C77.5466 47.0488 77.5736 46.7627 77.6616 46.4928C77.6831 46.3875 77.7297 46.2888 77.7973 46.2053C77.865 46.1218 77.9518 46.0557 78.0504 46.0128C78.1149 45.989 78.1856 45.9885 78.2505 46.0112C78.3153 46.034 78.3702 46.0787 78.4056 46.1376C78.4584 46.2264 78.444 46.2936 78.4608 46.296C78.4776 46.2984 78.5256 46.236 78.4872 46.1016C78.4602 46.0216 78.4069 45.9531 78.336 45.9072C78.2872 45.8744 78.2324 45.8516 78.1747 45.8401C78.117 45.8286 78.0577 45.8285 78 45.84C77.8676 45.8806 77.7478 45.9544 77.6521 46.0544C77.5563 46.1544 77.4877 46.2772 77.4528 46.4112C77.3403 46.7104 77.3032 47.0327 77.3448 47.3496C77.4312 48.012 77.8248 48.6 78.3216 48.6888C78.4129 48.7062 78.507 48.7027 78.5967 48.6786C78.6865 48.6545 78.7697 48.6104 78.84 48.5496C78.9432 48.4584 78.96 48.384 78.9408 48.3792Z" fill="#EB996E" />
        <path d="M95.1793 34.1639C94.9537 35.4767 92.2993 36.6791 90.0865 36.6143C88.0537 36.5543 87.0481 35.5463 85.5721 34.8287C84.6361 34.3751 84.6361 34.3751 83.3665 34.5887C82.3417 34.7543 81.8089 35.9663 81.2329 36.8303C82.3297 39.2303 81.8857 42.0047 81.4201 44.5967C81.4 44.8891 81.2825 45.1662 81.0865 45.3839C80.7169 45.7103 80.1265 45.5159 79.7521 45.1823C79.1689 44.6471 78.9025 43.8551 78.7129 43.0871C78.2478 41.3404 78.1368 39.5182 78.3865 37.7279C78.6388 35.9289 79.4131 34.2434 80.6137 32.8799C82.1837 31.2255 84.3349 30.2454 86.6137 30.1463C88.881 30.0651 91.1163 30.6999 93.0025 31.9607C93.8761 32.5343 94.6825 33.2423 95.1865 34.1615" fill="#263238" />
        <path d="M90.8041 48.72L89.1241 47.9376C89.032 47.8831 88.9261 47.8565 88.8193 47.8608C88.7011 47.8874 88.5974 47.9577 88.5289 48.0576C88.332 48.2933 88.2091 48.582 88.1758 48.8873C88.1425 49.1926 88.2002 49.501 88.3417 49.7736C88.4954 50.0392 88.7373 50.2426 89.0252 50.3487C89.3132 50.4547 89.6292 50.4568 89.9185 50.3544C90.5137 50.1144 90.8017 49.416 90.8497 48.7728L90.8041 48.72Z" fill="#EB996E" />
        <path d="M89.9712 50.4792C89.9712 50.4936 89.892 50.5416 89.7312 50.5776C89.4906 50.6208 89.243 50.6026 89.0112 50.5248C88.6569 50.4054 88.3599 50.1581 88.1784 49.8312C88.0636 49.632 87.9948 49.4097 87.977 49.1804C87.9591 48.9512 87.9927 48.7209 88.0752 48.5064C88.1597 48.284 88.2925 48.0832 88.464 47.9184C88.5473 47.8396 88.6391 47.7704 88.7376 47.712C88.7967 47.6768 88.8634 47.6562 88.932 47.652C88.9987 47.6493 89.0651 47.6616 89.1264 47.688C89.2161 47.7331 89.3034 47.7828 89.388 47.8368L89.616 47.9784L90.0264 48.2328C90.5232 48.5496 90.8232 48.7608 90.8064 48.7896C90.7896 48.8184 90.4584 48.6648 89.9376 48.3864L89.5128 48.1464L89.2728 48.0144C89.1912 47.9736 89.1048 47.9184 89.0328 47.8896C89.0033 47.8754 88.9704 47.8697 88.9377 47.8731C88.9051 47.8765 88.8741 47.8888 88.848 47.9088C88.7684 47.959 88.6943 48.0178 88.6272 48.084C88.4848 48.2258 88.3736 48.3958 88.3009 48.5832C88.2312 48.7649 88.2016 48.9596 88.214 49.1538C88.2264 49.3481 88.2806 49.5374 88.3728 49.7088C88.5224 49.996 88.7678 50.2219 89.0664 50.3472C89.2731 50.4304 89.4941 50.472 89.7168 50.4696C89.8752 50.4768 89.964 50.4624 89.9712 50.4792Z" fill="#263238" />
        <path d="M89.4409 42.9048C89.417 42.6236 89.3729 42.3445 89.3089 42.0696C89.19 41.61 88.9763 41.1804 88.6816 40.8084C88.3868 40.4363 88.0175 40.13 87.5973 39.9092C87.1771 39.6884 86.7154 39.5579 86.2418 39.5262C85.7682 39.4944 85.2932 39.5621 84.8473 39.7248C84.5399 39.8351 84.251 39.9912 83.9905 40.188C83.7126 40.387 83.4694 40.6302 83.2705 40.908C82.8427 41.4863 82.6119 42.1867 82.6119 42.906C82.6119 43.6253 82.8427 44.3257 83.2705 44.904C83.4694 45.1818 83.7126 45.425 83.9905 45.624C84.251 45.8208 84.5399 45.9769 84.8473 46.0872C85.2932 46.2484 85.7679 46.3149 86.2411 46.2824C86.7142 46.25 87.1753 46.1193 87.5951 45.8987C88.0149 45.678 88.3841 45.3723 88.6792 45.0011C88.9742 44.6298 89.1887 44.2012 89.3089 43.7424C89.3726 43.4683 89.4167 43.19 89.4409 42.9096C89.4436 42.9279 89.4436 42.9465 89.4409 42.9648C89.4409 43.008 89.4409 43.0632 89.4409 43.128C89.443 43.2172 89.4366 43.3064 89.4217 43.3944C89.4083 43.5157 89.3866 43.636 89.3569 43.7544C89.2809 44.0811 89.1554 44.3943 88.9849 44.6832C88.5749 45.3838 87.9325 45.9187 87.1691 46.1949C86.4058 46.4712 85.5698 46.4713 84.8065 46.1952C84.4884 46.0815 84.1898 45.9196 83.9209 45.7152C83.6343 45.5099 83.3831 45.2595 83.1769 44.9736C82.7335 44.3745 82.4943 43.6489 82.4943 42.9036C82.4943 42.1583 82.7335 41.4327 83.1769 40.8336C83.3816 40.5473 83.6321 40.2967 83.9185 40.092C84.1874 39.8876 84.486 39.7257 84.8041 39.612C85.3922 39.4008 86.0262 39.3511 86.6401 39.468C87.126 39.561 87.5865 39.7568 87.9905 40.0425C88.3945 40.3281 88.7327 40.6968 88.9825 41.124C89.153 41.4129 89.2785 41.7261 89.3545 42.0528C89.3842 42.1712 89.4059 42.2915 89.4193 42.4128C89.4341 42.5008 89.4406 42.59 89.4385 42.6792C89.4385 42.744 89.4385 42.7992 89.4385 42.8424C89.4424 42.863 89.4432 42.884 89.4409 42.9048Z" fill="#263238" />
        <path d="M97.6584 42.5808C97.6349 42.307 97.5924 42.0351 97.5312 41.7672C97.3388 41.0413 96.9077 40.4013 96.3072 39.9504C95.8981 39.6392 95.421 39.4295 94.9152 39.3384C94.3349 39.2318 93.7366 39.2824 93.1824 39.4848C92.8843 39.5926 92.6036 39.7439 92.3496 39.9336C92.0823 40.1293 91.8474 40.3657 91.6536 40.6344C91.2388 41.1985 91.015 41.8805 91.015 42.5808C91.015 43.281 91.2388 43.963 91.6536 44.5272C91.8469 44.7956 92.0818 45.0314 92.3496 45.2256C92.603 45.4169 92.8837 45.569 93.1824 45.6768C93.7369 45.878 94.3348 45.9285 94.9152 45.8232C95.421 45.732 95.8981 45.5223 96.3072 45.2112C96.9077 44.7602 97.3388 44.1203 97.5312 43.3944C97.5924 43.1264 97.6349 42.8546 97.6584 42.5808C97.6642 42.6519 97.6642 42.7233 97.6584 42.7944C97.6593 42.882 97.6529 42.9695 97.6392 43.056C97.6264 43.1741 97.6056 43.2911 97.5768 43.4064C97.4239 44.0349 97.0939 44.6064 96.626 45.0531C96.158 45.4998 95.5718 45.8028 94.9368 45.9264C94.338 46.0394 93.72 45.9905 93.1464 45.7848C92.5121 45.5537 91.9597 45.1414 91.5576 44.5992C91.1257 44.0148 90.8927 43.3074 90.8927 42.5808C90.8927 41.8542 91.1257 41.1467 91.5576 40.5624C91.9597 40.0201 92.5121 39.6078 93.1464 39.3768C93.72 39.171 94.338 39.1221 94.9368 39.2352C95.5718 39.3587 96.158 39.6618 96.626 40.1084C97.0939 40.5551 97.4239 41.1266 97.5768 41.7552C97.6056 41.8704 97.6264 41.9875 97.6392 42.1056C97.6529 42.1921 97.6593 42.2796 97.6584 42.3672C97.6642 42.4383 97.6642 42.5097 97.6584 42.5808Z" fill="#263238" />
        <path d="M90.9601 41.8223C90.9457 41.8343 90.8665 41.7695 90.7201 41.6999C90.5313 41.61 90.3243 41.5649 90.1153 41.5679C89.9067 41.5709 89.7018 41.6236 89.5177 41.7215C89.3737 41.7959 89.2969 41.8655 89.2777 41.8511C89.2585 41.8367 89.3209 41.7455 89.4649 41.6447C89.6545 41.5156 89.8778 41.4447 90.1073 41.4408C90.3367 41.437 90.5622 41.5004 90.7561 41.6231C90.9025 41.7191 90.9601 41.8127 90.9601 41.8223Z" fill="#263238" />
        <path d="M82.7641 42.4152C82.2892 42.8465 81.7874 43.2473 81.2617 43.6152C80.7588 44.015 80.2314 44.383 79.6825 44.7168C80.1569 44.2838 80.6596 43.8829 81.1873 43.5168C81.6886 43.116 82.2153 42.7481 82.7641 42.4152Z" fill="#263238" />
        <g opacity="0.3">
            <path d="M79.92 58.0344C79.5864 61.2912 80.8248 64.7304 83.4384 66.7032C83.6424 66.8592 83.8992 67.0128 84.1416 66.924C84.3033 66.8457 84.4323 66.7132 84.5064 66.5496C85.2384 65.285 85.513 63.8071 85.284 62.364C84.8712 63.4536 84.516 64.524 84.0984 65.6616C81.8256 64.2792 80.4 61.3416 79.92 58.0344Z" fill="black" />
        </g>
        <path opacity="0.3" d="M88.7688 65.4408L90.6888 64.74L91.0056 67.9824C91.0056 67.9824 93.0744 64.212 93.9312 62.4936C94.788 60.7752 94.3464 57.7368 94.3464 57.7368C94.3464 57.7368 94.6512 60.3768 92.58 63.7536L91.0152 66.2976V63.6336L88.7688 65.4408Z" fill="black" />
        <g opacity="0.3">
            <path d="M66.48 81.9192C65.6047 81.5474 64.6431 81.4269 63.7032 81.5712C62.7015 81.6531 61.7433 82.0158 60.9384 82.6176C60.1608 83.244 59.6352 84.2328 59.7384 85.2264L59.8344 85.2384C60.504 83.4288 61.8336 82.1184 63.5496 81.9528C65.2656 81.7872 66.9384 82.5552 68.1096 83.8152C67.9824 82.8744 67.3248 82.32 66.48 81.9192Z" fill="black" />
        </g>
        <g opacity="0.3">
            <path d="M114.946 83.76C114.28 83.0773 113.411 82.6299 112.469 82.4856C111.648 82.3483 110.807 82.3971 110.008 82.6285C109.209 82.8599 108.472 83.2679 107.851 83.8224L108.216 83.5248C109.144 82.9659 110.21 82.6767 111.293 82.6896C112.38 82.7082 113.423 83.1249 114.223 83.8608C114.943 84.5424 115.373 85.4664 115.783 86.3664C115.85 85.8969 115.809 85.4184 115.664 84.967C115.519 84.5155 115.273 84.1029 114.946 83.76Z" fill="black" />
        </g>
        <path d="M102.588 68.7119C102.608 68.622 102.636 68.5343 102.674 68.4503C102.749 68.2607 102.84 68.0279 102.946 67.7519C103.186 67.1639 103.498 66.3528 103.834 65.448C104.17 64.5432 104.46 63.7199 104.669 63.1247L104.909 62.4168C104.935 62.3283 104.97 62.243 105.014 62.1624C105.007 62.2543 104.987 62.3448 104.954 62.4312C104.909 62.604 104.837 62.8488 104.743 63.1512C104.556 63.756 104.278 64.5912 103.942 65.4912C103.606 66.3912 103.272 67.2072 103.018 67.7856C102.893 68.076 102.778 68.3088 102.708 68.4696C102.678 68.555 102.638 68.6364 102.588 68.7119Z" fill="#263238" />
        <path d="M72.3312 68.9472C72.2976 68.9472 72.036 67.812 71.748 66.396C71.46 64.98 71.2536 63.84 71.28 63.8208C71.3064 63.8016 71.5728 64.956 71.8608 66.372C72.1488 67.788 72.3648 68.94 72.3312 68.9472Z" fill="#263238" />
        <path d="M71.8777 83.2248C71.9545 83.2632 70.9993 75.7464 70.9993 75.7464C70.9993 75.7464 71.6017 70.0416 71.9401 69.7776V67.764C71.9401 67.764 72.8737 67.2 73.1233 68.112C73.1233 68.112 73.9513 67.392 74.0833 69.1032C74.2153 70.8144 74.2585 72.5616 74.2585 72.5616L76.0993 77.1648L76.4017 77.3184C76.4017 77.3184 76.7977 73.7184 77.0281 73.1808C77.2585 72.6432 77.4169 71.3592 78.2881 71.5536C79.1593 71.748 79.2337 72.468 79.0777 73.644C78.9217 74.82 78.7249 76.044 78.7993 76.7976C78.8737 77.5512 79.2169 79.2288 79.1113 80.5584C79.0057 81.888 78.2761 83.2896 77.5129 84.2736C76.7497 85.2576 75.2881 87.2952 74.4961 87.9072C74.2393 88.1232 71.8777 83.2248 71.8777 83.2248Z" fill="#FFBE9D" />
        <path d="M72.8088 77.1071C72.7968 77.0003 72.7968 76.8924 72.8088 76.7855C72.8232 76.5455 72.8448 76.2623 72.8688 75.9119C72.924 75.1751 73.0104 74.1575 73.1088 73.0319C73.1616 72.4727 73.212 71.9399 73.2576 71.4503C73.285 71.2248 73.285 70.9967 73.2576 70.7711C73.2321 70.578 73.1484 70.3972 73.0176 70.2527C72.9217 70.1493 72.8055 70.0667 72.6763 70.0101C72.547 69.9536 72.4075 69.9242 72.2664 69.9239C72.1608 69.9289 72.0557 69.9418 71.952 69.9623C71.9756 69.9458 72.0015 69.9329 72.0288 69.9239C72.1058 69.8951 72.1867 69.8781 72.2688 69.8735C72.4202 69.8649 72.5716 69.8889 72.7128 69.944C72.854 69.9991 72.9817 70.0839 73.0872 70.1927C73.2323 70.3486 73.3254 70.5457 73.3536 70.7567C73.3837 70.9902 73.3837 71.2265 73.3536 71.4599C73.3104 71.9399 73.2624 72.4847 73.2144 73.0439C73.1112 74.1671 73.0104 75.1823 72.9312 75.9239L72.8328 76.7951C72.8338 76.8996 72.8258 77.004 72.8088 77.1071Z" fill="#EB996E" />
        <path d="M73.7976 74.0328C73.6636 74.2154 73.5538 74.4146 73.4712 74.6256C73.3248 75.157 73.2229 75.6997 73.1664 76.248C73.0656 76.8912 72.9696 77.472 72.8928 77.892C72.8649 78.121 72.8151 78.3469 72.744 78.5664C72.7449 78.3354 72.7658 78.1049 72.8064 77.8776C72.8592 77.4552 72.9432 76.872 73.0464 76.2288C73.1496 75.5856 73.2168 74.9976 73.3944 74.5944C73.4575 74.4364 73.5459 74.2897 73.656 74.16C73.7352 74.064 73.7928 74.028 73.7976 74.0328Z" fill="#EB996E" />
        <path d="M73.1208 68.0135C73.1543 68.0899 73.1761 68.1708 73.1856 68.2535C73.2192 68.4071 73.26 68.6303 73.3056 68.9087C73.3968 69.4631 73.4976 70.2335 73.5624 71.0903C73.6272 71.9471 73.6392 72.7247 73.6296 73.2863C73.6296 73.5671 73.6176 73.7951 73.6056 73.9511C73.6077 74.0321 73.598 74.113 73.5768 74.1911C73.5477 73.8897 73.5357 73.5868 73.5408 73.2839C73.5288 72.7223 73.5 71.9495 73.4376 71.0975C73.3752 70.2455 73.2888 69.4751 73.2192 68.9183C73.1685 68.619 73.1357 68.3168 73.1208 68.0135Z" fill="#EB996E" />
        <path d="M78.4321 75.06C78.3411 75.1188 78.237 75.1543 78.1291 75.1635C78.0211 75.1727 77.9125 75.1553 77.8129 75.1128C77.4601 75.0072 77.2969 74.736 77.3329 74.724C77.4981 74.8289 77.6724 74.9189 77.8537 74.9928C78.0443 75.0312 78.2378 75.0537 78.4321 75.06Z" fill="#EB996E" />
        <path d="M71.9809 82.2888L67.1185 84.3336H64.2193C64.2193 84.3336 61.3537 85.2288 60.9121 87.9168C60.4705 90.6048 60.4081 91.9848 61.6681 92.3184C62.9281 92.652 66.4873 92.688 68.2513 92.1024C70.0153 91.5168 74.6377 87.7824 74.6377 87.7824L75.0817 85.0848L71.9809 82.2888Z" fill="#FFBE9D" />
        <path d="M73.1209 85.26C73.1209 85.26 73.0657 85.2192 72.9817 85.1328C72.8659 85.0073 72.7608 84.8724 72.6673 84.7296C72.3629 84.2549 72.1338 83.736 71.9881 83.1912C71.8376 82.6512 71.7371 82.0984 71.6881 81.54C71.6558 81.3094 71.6493 81.076 71.6689 80.844C71.7209 81.0691 71.7562 81.2977 71.7745 81.528C71.8486 82.0781 71.96 82.6226 72.1081 83.1576C72.253 83.6914 72.466 84.2045 72.7417 84.684C72.9601 85.0464 73.1377 85.2432 73.1209 85.26Z" fill="#EB996E" />
        <path d="M75.2401 86.112C75.3688 85.7756 75.4613 85.4264 75.5161 85.0704C75.625 84.202 75.3907 83.3255 74.8633 82.6272C74.5681 82.2144 74.2345 81.8544 73.9537 81.504C73.698 81.1985 73.4774 80.8652 73.2961 80.5104C73.1771 80.2682 73.0961 80.0092 73.0561 79.7424C73.0414 79.6453 73.0414 79.5466 73.0561 79.4496C73.1123 79.8048 73.2241 80.149 73.3873 80.4696C73.5763 80.8121 73.8007 81.1339 74.0569 81.4296C74.3377 81.7704 74.6737 82.1304 74.9761 82.5528C75.2703 82.9489 75.4772 83.4029 75.5833 83.8848C75.6651 84.2797 75.6756 84.6861 75.6145 85.0848C75.5741 85.3507 75.4999 85.6105 75.3937 85.8576C75.3553 85.944 75.3193 86.0088 75.2953 86.052C75.2713 86.0952 75.2425 86.1144 75.2401 86.112Z" fill="#EB996E" />
        <path d="M67.7401 74.4C67.3087 73.7004 66.913 72.9795 66.5545 72.24C65.9305 71.04 65.4505 70.0416 65.4793 70.0248C65.9106 70.7243 66.3063 71.4453 66.6649 72.1848C67.0608 72.9044 67.4197 73.6437 67.7401 74.4Z" fill="white" />
        <path d="M75.6001 65.6424C75.8047 65.0271 76.0492 64.4259 76.3321 63.8424C76.5776 63.2428 76.8606 62.6593 77.1793 62.0952C76.9734 62.71 76.7289 63.3112 76.4473 63.8952C76.2024 64.4951 75.9194 65.0786 75.6001 65.6424Z" fill="white" />
        <path d="M83.3113 71.3256C82.913 70.9425 82.544 70.5301 82.2073 70.092C81.8402 69.6797 81.5041 69.2409 81.2017 68.7792C81.6002 69.1613 81.9685 69.5737 82.3033 70.0128C82.6715 70.4247 83.0084 70.8635 83.3113 71.3256Z" fill="white" />
        <path d="M81.5376 79.1424C81.7811 78.7037 82.0588 78.2848 82.368 77.8896C82.6464 77.4719 82.9587 77.0778 83.3016 76.7112C83.0587 77.1503 82.781 77.5692 82.4712 77.964C82.1943 78.3828 81.882 78.777 81.5376 79.1424Z" fill="white" />
        <path d="M79.152 90.1848C79.04 90.0363 78.9458 89.8752 78.8712 89.7048C78.7128 89.3976 78.5088 88.968 78.3024 88.4856C78.096 88.0032 77.9304 87.5544 77.8224 87.2304C77.7507 87.0577 77.6991 86.8773 77.6688 86.6928C77.7677 86.852 77.8482 87.0219 77.9088 87.1992L78.4248 88.4352C78.624 88.8936 78.8016 89.3088 78.9576 89.6664C79.0415 89.8314 79.1067 90.0053 79.152 90.1848Z" fill="white" />
        <path d="M85.92 85.4904C85.4292 85.4579 84.9419 85.3849 84.4632 85.272C83.9744 85.1996 83.4926 85.0856 83.0232 84.9312C83.9972 85.0362 84.9607 85.2232 85.9032 85.4904H85.92Z" fill="white" />
        <path d="M91.2001 75.1728C91.6301 74.6158 92.0933 74.0852 92.5873 73.584C93.0517 73.053 93.547 72.5497 94.0705 72.0768C93.6387 72.6338 93.1747 73.1651 92.6809 73.668C92.2165 74.1975 91.7221 74.7 91.2001 75.1728Z" fill="white" />
        <path d="M96.48 88.932C96.4536 88.956 95.6784 88.056 94.7472 86.928C93.816 85.8 93.084 84.864 93.1104 84.8424C93.1368 84.8208 93.912 85.7184 94.8432 86.8464C95.7744 87.9744 96.5016 88.9104 96.48 88.932Z" fill="white" />
        <path d="M63.6481 83.0688C63.6649 83.1024 62.9568 83.4624 62.184 84.0552C61.4112 84.648 60.8736 85.2336 60.8448 85.2072C60.9321 85.0553 61.0422 84.9176 61.1712 84.7992C61.4587 84.4922 61.7718 84.2104 62.1072 83.9568C62.4412 83.7018 62.7961 83.4754 63.1681 83.28C63.3169 83.1866 63.4786 83.1155 63.6481 83.0688Z" fill="white" />
        <path d="M65.6257 77.76C65.4732 78.0996 65.2841 78.4215 65.0617 78.72C64.8722 79.0415 64.6477 79.3409 64.3921 79.6128C64.545 79.2734 64.7341 78.9516 64.9561 78.6528C65.1451 78.331 65.3697 78.0315 65.6257 77.76Z" fill="white" />
        <path d="M70.08 82.9728C69.6957 82.3617 69.5315 81.6378 69.6144 80.9208C69.6504 80.9208 69.6624 81.4008 69.7944 81.96C69.9264 82.5192 70.1136 82.956 70.08 82.9728Z" fill="white" />
        <path d="M70.74 66.432C70.4416 66.5361 70.1311 66.6015 69.816 66.6264C69.5061 66.6915 69.1889 66.7149 68.8728 66.696C69.1721 66.592 69.4834 66.5267 69.7992 66.5016C70.1085 66.4379 70.4247 66.4145 70.74 66.432Z" fill="white" />
        <path d="M74.0856 60.4968C73.5687 60.8793 73.0039 61.1924 72.4056 61.428C72.6513 61.2197 72.9232 61.0446 73.2144 60.9072C73.4863 60.7341 73.779 60.5962 74.0856 60.4968Z" fill="white" />
        <path d="M83.496 63.0047C83.1569 62.6598 82.847 62.2874 82.5696 61.8911C82.2617 61.5189 81.9855 61.1215 81.744 60.7031C82.3934 61.4183 82.9796 62.1884 83.496 63.0047Z" fill="white" />
        <path d="M95.4409 68.9711C94.7794 68.3192 94.2818 67.5197 93.9889 66.6383C94.0249 66.6239 94.2817 67.1831 94.6849 67.8239C95.0881 68.4647 95.4697 68.9471 95.4409 68.9711Z" fill="white" />
        <path d="M100.001 70.4736C99.7112 71.3174 99.3415 72.1315 98.8969 72.9048C99.0248 72.4771 99.1911 72.0619 99.3937 71.664C99.5579 71.2489 99.7612 70.8503 100.001 70.4736Z" fill="white" />
        <path d="M100.639 64.2504C100.203 63.8268 99.7971 63.3729 99.4248 62.892C99.0203 62.4381 98.6475 61.957 98.3088 61.452C99.1486 62.3305 99.9273 63.2655 100.639 64.2504Z" fill="white" />
        <path d="M93.6745 59.196C93.5984 58.8136 93.5622 58.4243 93.5665 58.0344C93.5303 57.6453 93.5359 57.2535 93.5833 56.8656C93.6593 57.248 93.6955 57.6373 93.6913 58.0272C93.7289 58.4162 93.7233 58.8082 93.6745 59.196Z" fill="white" />
        <path d="M99.3601 58.8816C98.8736 59.0091 98.3776 59.0966 97.8769 59.1432C97.3823 59.2301 96.8814 59.2759 96.3793 59.28C96.8657 59.1525 97.3618 59.065 97.8625 59.0184C98.357 58.9314 98.8579 58.8856 99.3601 58.8816Z" fill="white" />
        <path d="M108.295 65.4504C107.962 64.9035 107.664 64.336 107.402 63.7512C107.106 63.1838 106.846 62.5978 106.625 61.9968C106.96 62.5434 107.259 63.111 107.52 63.696C107.816 64.2636 108.075 64.8496 108.295 65.4504Z" fill="white" />
        <path d="M106.8 71.1264C106.9 70.2097 107.082 69.3038 107.342 68.4192C107.313 68.8797 107.244 69.3367 107.134 69.7848C107.064 70.2412 106.952 70.6903 106.8 71.1264Z" fill="white" />
        <path d="M110.938 75.6C110.658 75.0019 110.417 74.3862 110.218 73.7568C109.98 73.1413 109.782 72.5112 109.625 71.8704C109.903 72.47 110.144 73.0864 110.345 73.716C110.582 74.3309 110.78 74.9602 110.938 75.6Z" fill="white" />
        <path d="M110.359 78.2184C109.931 78.1539 109.519 78.0063 109.147 77.784C108.757 77.5964 108.408 77.3319 108.122 77.0064C108.146 76.9776 108.588 77.3424 109.207 77.6736C109.826 78.0048 110.371 78.1824 110.359 78.2184Z" fill="white" />
        <path d="M115.68 84.1848C115.357 83.6608 115.106 83.0957 114.934 82.5048C115.257 83.0287 115.508 83.5938 115.68 84.1848Z" fill="white" />
        <path d="M84.2905 92.508C84.1881 92.1618 84.1253 91.8051 84.1033 91.4448C84.0425 91.089 84.0216 90.7276 84.0409 90.3672C84.1505 90.7154 84.2174 91.0756 84.2401 91.44C84.2976 91.7929 84.3145 92.1512 84.2905 92.508Z" fill="white" />
        <path d="M100.594 92.0952C100.605 91.7439 100.657 91.3951 100.75 91.056C100.804 90.7087 100.898 90.3688 101.03 90.0432C101.019 90.3947 100.966 90.7436 100.872 91.0824C100.819 91.4298 100.726 91.7697 100.594 92.0952Z" fill="white" />
        <path d="M46 48V44H46.7367V47.3027H48.2305V48H46Z" fill="black" />
        <path d="M49.4551 44V48H48.7184V44H49.4551Z" fill="black" />
        <path d="M50.6908 44L51.533 47.0391H51.5653L52.4092 44H53.2259L52.0247 48H51.0753L49.8724 44H50.6908Z" fill="black" />
        <path d="M53.6453 48V44H55.9932V44.6973H54.382V45.6504H55.8724V46.3477H54.382V47.3027H56V48H53.6453Z" fill="black" />
        <circle cx="43" cy="46" r="2" fill="#DB2626" />
    </g>
    <defs>
        <clipPath id="clip0_469_42509">
            <rect width="180" height="120" fill="white" />
        </clipPath>
    </defs>
</svg>
    