<svg width="10" height="8" viewBox="0 0 10 8" fill="none" xmlns="http://www.w3.org/2000/svg">
    <path
        d="M4 0H1C0.45 0 0.005 0.45 0.005 1L0 7C0 7.55 0.45 8 1 8H9C9.55 8 10 7.55 10 7V2C10 1.45 9.55 1 9 1H5L4 0Z"
        fill="#1E40AE" />
    <path
        d="M6 7C7.10457 7 8 6.10457 8 5C8 3.89543 7.10457 3 6 3C4.89543 3 4 3.89543 4 5C4 6.10457 4.89543 7 6 7Z"
        stroke="white" stroke-width="0.45" stroke-linecap="round" stroke-linejoin="round" />
    <path d="M6 4.11111H6.00222" stroke="white" stroke-width="0.5" stroke-linecap="round"
        stroke-linejoin="round" />
    <path d="M5.77777 5H5.99999V5.88889H6.22222" stroke="white" stroke-width="0.45"
        stroke-linecap="round" stroke-linejoin="round" />
</svg>
    